<?xml version="1.0" encoding="UTF-8" standalone="no"?>
<!DOCTYPE svg PUBLIC "-//W3C//DTD SVG 1.1//EN"
 "http://www.w3.org/Graphics/SVG/1.1/DTD/svg11.dtd">
<!-- Generated by graphviz version 13.0.0 (20250608.1624)
 -->
<!-- Pages: 1 -->
<svg width="1245pt" height="2228pt"
 viewBox="0.00 0.00 1245.00 2228.00" xmlns="http://www.w3.org/2000/svg" xmlns:xlink="http://www.w3.org/1999/xlink">
<g id="graph0" class="graph" transform="scale(4.16667 4.16667) rotate(0) translate(14.4 520.4)">
<!-- Sun -->
<g id="node1" class="node">
<title>Sun</title>
<polygon fill="none" stroke="white" points="206.25,-506 152.25,-506 152.25,-470 206.25,-470 206.25,-506"/>
<text xml:space="preserve" text-anchor="middle" x="179.25" y="-482.95" font-family="Courier,monospace" font-size="14.00" fill="white">Sun</text>
</g>
<!-- Evaporation -->
<g id="node2" class="node">
<title>Evaporation</title>
<polygon fill="none" stroke="white" points="235.43,-412 123.08,-412 123.08,-376 235.43,-376 235.43,-412"/>
<text xml:space="preserve" text-anchor="middle" x="179.25" y="-388.95" font-family="Courier,monospace" font-size="14.00" fill="white">Evaporation</text>
</g>
<!-- Sun&#45;&gt;Evaporation -->
<g id="edge1" class="edge">
<title>Sun&#45;&gt;Evaporation</title>
<path fill="none" stroke="white" stroke-width="0.8" d="M179.25,-469.88C179.25,-469.88 179.25,-423.6 179.25,-423.6"/>
<polygon fill="white" stroke="white" stroke-width="0.8" points="182.75,-423.6 179.25,-413.6 175.75,-423.6 182.75,-423.6"/>
</g>
<!-- Clouds -->
<g id="node3" class="node">
<title>Clouds</title>
<polygon fill="none" stroke="white" points="142.8,-318 71.7,-318 71.7,-282 142.8,-282 142.8,-318"/>
<text xml:space="preserve" text-anchor="middle" x="107.25" y="-294.95" font-family="Courier,monospace" font-size="14.00" fill="white">Clouds</text>
</g>
<!-- Evaporation&#45;&gt;Clouds -->
<g id="edge2" class="edge">
<title>Evaporation&#45;&gt;Clouds</title>
<path fill="none" stroke="white" stroke-width="0.8" d="M132.94,-375.88C132.94,-375.88 132.94,-329.6 132.94,-329.6"/>
<polygon fill="white" stroke="white" stroke-width="0.8" points="136.44,-329.6 132.94,-319.6 129.44,-329.6 136.44,-329.6"/>
<text xml:space="preserve" text-anchor="middle" x="83.44" y="-355.94" font-family="Courier,monospace" font-size="14.00" fill="white">condensation</text>
</g>
<!-- Rain -->
<g id="node4" class="node">
<title>Rain</title>
<polygon fill="none" stroke="white" points="134.55,-224 79.95,-224 79.95,-188 134.55,-188 134.55,-224"/>
<text xml:space="preserve" text-anchor="middle" x="107.25" y="-200.95" font-family="Courier,monospace" font-size="14.00" fill="white">Rain</text>
</g>
<!-- Clouds&#45;&gt;Rain -->
<g id="edge3" class="edge">
<title>Clouds&#45;&gt;Rain</title>
<path fill="none" stroke="white" stroke-width="0.8" d="M107.25,-281.88C107.25,-281.88 107.25,-235.6 107.25,-235.6"/>
<polygon fill="white" stroke="white" stroke-width="0.8" points="110.75,-235.6 107.25,-225.6 103.75,-235.6 110.75,-235.6"/>
<text xml:space="preserve" text-anchor="middle" x="53.62" y="-261.94" font-family="Courier,monospace" font-size="14.00" fill="white">precipitation</text>
</g>
<!-- Rivers -->
<g id="node5" class="node">
<title>Rivers</title>
<polygon fill="none" stroke="white" points="142.8,-130 71.7,-130 71.7,-94 142.8,-94 142.8,-130"/>
<text xml:space="preserve" text-anchor="middle" x="107.25" y="-106.95" font-family="Courier,monospace" font-size="14.00" fill="white">Rivers</text>
</g>
<!-- Rain&#45;&gt;Rivers -->
<g id="edge4" class="edge">
<title>Rain&#45;&gt;Rivers</title>
<path fill="none" stroke="white" stroke-width="0.8" d="M107.25,-187.88C107.25,-187.88 107.25,-141.6 107.25,-141.6"/>
<polygon fill="white" stroke="white" stroke-width="0.8" points="110.75,-141.6 107.25,-131.6 103.75,-141.6 110.75,-141.6"/>
</g>
<!-- Oceans -->
<g id="node6" class="node">
<title>Oceans</title>
<polygon fill="none" stroke="white" points="214.8,-36 143.7,-36 143.7,0 214.8,0 214.8,-36"/>
<text xml:space="preserve" text-anchor="middle" x="179.25" y="-12.95" font-family="Courier,monospace" font-size="14.00" fill="white">Oceans</text>
</g>
<!-- Rivers&#45;&gt;Oceans -->
<g id="edge5" class="edge">
<title>Rivers&#45;&gt;Oceans</title>
<path fill="none" stroke="white" stroke-width="0.8" d="M107.25,-93.88C107.25,-66.56 107.25,-18 107.25,-18 107.25,-18 132.04,-18 132.04,-18"/>
<polygon fill="white" stroke="white" stroke-width="0.8" points="132.04,-21.5 142.04,-18 132.04,-14.5 132.04,-21.5"/>
</g>
<!-- Oceans&#45;&gt;Evaporation -->
<g id="edge6" class="edge">
<title>Oceans&#45;&gt;Evaporation</title>
<path fill="none" stroke="white" stroke-width="0.8" d="M179.25,-36.39C179.25,-36.39 179.25,-364.43 179.25,-364.43"/>
<polygon fill="white" stroke="white" stroke-width="0.8" points="175.75,-364.43 179.25,-374.43 182.75,-364.43 175.75,-364.43"/>
<text xml:space="preserve" text-anchor="middle" x="224.62" y="-203.61" font-family="Courier,monospace" font-size="14.00" fill="white">evaporation</text>
</g>
</g>
</svg>
