<?xml version="1.0" encoding="UTF-8" standalone="no"?>
<!DOCTYPE svg PUBLIC "-//W3C//DTD SVG 1.1//EN"
 "http://www.w3.org/Graphics/SVG/1.1/DTD/svg11.dtd">
<!-- Generated by graphviz version 13.0.0 (20250608.1624)
 -->
<!-- Pages: 1 -->
<svg width="1446pt" height="1170pt"
 viewBox="0.00 0.00 1446.00 1170.00" xmlns="http://www.w3.org/2000/svg" xmlns:xlink="http://www.w3.org/1999/xlink">
<g id="graph0" class="graph" transform="scale(4.16667 4.16667) rotate(0) translate(14.4 266.4)">
<polygon fill="black" stroke="none" points="-14.4,14.4 -14.4,-266.4 332.6,-266.4 332.6,14.4 -14.4,14.4"/>
<!-- API -->
<g id="node1" class="node">
<title>API</title>
<polygon fill="#222222" stroke="#00ff00" points="54,-144 0,-144 0,-108 54,-108 54,-144"/>
<text xml:space="preserve" text-anchor="middle" x="27" y="-121.72" font-family="Courier,monospace" font-size="12.00" fill="#00ff00">API</text>
</g>
<!-- Server -->
<g id="node2" class="node">
<title>Server</title>
<polygon fill="#222222" stroke="#00ff00" points="178.6,-144 112,-144 112,-108 178.6,-108 178.6,-144"/>
<text xml:space="preserve" text-anchor="middle" x="145.3" y="-121.72" font-family="Courier,monospace" font-size="12.00" fill="#00ff00">Server</text>
</g>
<!-- API&#45;&gt;Server -->
<g id="edge1" class="edge">
<title>API&#45;&gt;Server</title>
<path fill="none" stroke="red" stroke-width="0.8" d="M54.44,-126C54.44,-126 100.7,-126 100.7,-126"/>
<polygon fill="red" stroke="red" stroke-width="0.8" points="110.7,-126 100.7,-130.5 106.68,-126 100.7,-126 100.7,-126 100.7,-126 106.68,-126 100.7,-121.5 110.7,-126"/>
</g>
<!-- Database -->
<g id="node3" class="node">
<title>Database</title>
<polygon fill="#222222" stroke="#00ff00" points="318.2,-252 236.6,-252 236.6,-216 318.2,-216 318.2,-252"/>
<text xml:space="preserve" text-anchor="middle" x="277.4" y="-229.72" font-family="Courier,monospace" font-size="12.00" fill="#00ff00">Database</text>
</g>
<!-- Server&#45;&gt;Database -->
<g id="edge2" class="edge">
<title>Server&#45;&gt;Database</title>
<path fill="none" stroke="red" stroke-width="0.8" d="M179.03,-132C206.3,-132 240.2,-132 240.2,-132 240.2,-132 240.2,-204.79 240.2,-204.79"/>
<polygon fill="red" stroke="red" stroke-width="0.8" points="240.2,-214.79 235.7,-204.79 240.2,-210.76 240.2,-204.79 240.2,-204.79 240.2,-204.79 240.2,-210.76 244.7,-204.79 240.2,-214.79"/>
</g>
<!-- Cache -->
<g id="node4" class="node">
<title>Cache</title>
<polygon fill="#222222" stroke="#00ff00" points="306.95,-144 247.85,-144 247.85,-108 306.95,-108 306.95,-144"/>
<text xml:space="preserve" text-anchor="middle" x="277.4" y="-121.72" font-family="Courier,monospace" font-size="12.00" fill="#00ff00">Cache</text>
</g>
<!-- Server&#45;&gt;Cache -->
<g id="edge3" class="edge">
<title>Server&#45;&gt;Cache</title>
<path fill="none" stroke="red" stroke-width="0.8" d="M178.98,-120C178.98,-120 236.42,-120 236.42,-120"/>
<polygon fill="red" stroke="red" stroke-width="0.8" points="246.42,-120 236.42,-124.5 242.39,-120 236.42,-120 236.42,-120 236.42,-120 242.39,-120 236.42,-115.5 246.42,-120"/>
</g>
<!-- Logger -->
<g id="node5" class="node">
<title>Logger</title>
<polygon fill="#222222" stroke="#00ff00" points="310.7,-36 244.1,-36 244.1,0 310.7,0 310.7,-36"/>
<text xml:space="preserve" text-anchor="middle" x="277.4" y="-13.72" font-family="Courier,monospace" font-size="12.00" fill="#00ff00">Logger</text>
</g>
<!-- Server&#45;&gt;Logger -->
<g id="edge4" class="edge">
<title>Server&#45;&gt;Logger</title>
<path fill="none" stroke="red" stroke-width="0.8" d="M145.2,-107.68C145.2,-76.87 145.2,-18 145.2,-18 145.2,-18 232.72,-18 232.72,-18"/>
<polygon fill="red" stroke="red" stroke-width="0.8" points="242.72,-18 232.72,-22.5 238.7,-18 232.72,-18 232.72,-18 232.72,-18 238.7,-18 232.72,-13.5 242.72,-18"/>
</g>
</g>
</svg>
