<?xml version="1.0" encoding="UTF-8" standalone="no"?>
<!DOCTYPE svg PUBLIC "-//W3C//DTD SVG 1.1//EN"
 "http://www.w3.org/Graphics/SVG/1.1/DTD/svg11.dtd">
<!-- Generated by graphviz version 13.1.2 (20250808.2320)
 -->
<!-- Pages: 1 -->
<svg width="3519pt" height="3662pt"
 viewBox="0.00 0.00 3519.00 3662.00" xmlns="http://www.w3.org/2000/svg" xmlns:xlink="http://www.w3.org/1999/xlink">
<g id="graph0" class="graph" transform="scale(4.16667 4.16667) rotate(0) translate(36 842.85)">
<polygon fill="black" stroke="none" points="-36,36 -36,-842.85 808.58,-842.85 808.58,36 -36,36"/>
<!-- Client -->
<g id="node1" class="node">
<title>Client</title>
<path fill="black" stroke="white" d="M412.2,-806.85C412.2,-806.85 361.5,-806.85 361.5,-806.85 355.5,-806.85 349.5,-800.85 349.5,-794.85 349.5,-794.85 349.5,-777.3 349.5,-777.3 349.5,-771.3 355.5,-765.3 361.5,-765.3 361.5,-765.3 412.2,-765.3 412.2,-765.3 418.2,-765.3 424.2,-771.3 424.2,-777.3 424.2,-777.3 424.2,-794.85 424.2,-794.85 424.2,-800.85 418.2,-806.85 412.2,-806.85"/>
<text xml:space="preserve" text-anchor="middle" x="386.85" y="-781.05" font-family="Helvetica,sans-Serif" font-size="12.00" fill="white">Client</text>
</g>
<!-- LoadBalancer -->
<g id="node2" class="node">
<title>LoadBalancer</title>
<path fill="black" stroke="white" d="M433.95,-679.3C433.95,-679.3 339.75,-679.3 339.75,-679.3 333.75,-679.3 327.75,-673.3 327.75,-667.3 327.75,-667.3 327.75,-649.75 327.75,-649.75 327.75,-643.75 333.75,-637.75 339.75,-637.75 339.75,-637.75 433.95,-637.75 433.95,-637.75 439.95,-637.75 445.95,-643.75 445.95,-649.75 445.95,-649.75 445.95,-667.3 445.95,-667.3 445.95,-673.3 439.95,-679.3 433.95,-679.3"/>
<text xml:space="preserve" text-anchor="middle" x="386.85" y="-653.5" font-family="Helvetica,sans-Serif" font-size="12.00" fill="white">LoadBalancer</text>
</g>
<!-- Client&#45;&gt;LoadBalancer -->
<g id="edge1" class="edge">
<title>Client&#45;&gt;LoadBalancer</title>
<path fill="none" stroke="white" d="M386.85,-765.01C386.85,-765.01 386.85,-691.13 386.85,-691.13"/>
<polygon fill="white" stroke="white" points="390.35,-691.13 386.85,-681.13 383.35,-691.13 390.35,-691.13"/>
</g>
<!-- WebTier -->
<g id="node3" class="node">
<title>WebTier</title>
<path fill="black" stroke="white" d="M418.58,-551.75C418.58,-551.75 355.12,-551.75 355.12,-551.75 349.12,-551.75 343.12,-545.75 343.12,-539.75 343.12,-539.75 343.12,-522.2 343.12,-522.2 343.12,-516.2 349.12,-510.2 355.12,-510.2 355.12,-510.2 418.58,-510.2 418.58,-510.2 424.58,-510.2 430.58,-516.2 430.58,-522.2 430.58,-522.2 430.58,-539.75 430.58,-539.75 430.58,-545.75 424.58,-551.75 418.58,-551.75"/>
<text xml:space="preserve" text-anchor="middle" x="386.85" y="-525.95" font-family="Helvetica,sans-Serif" font-size="12.00" fill="white">WebTier</text>
</g>
<!-- LoadBalancer&#45;&gt;WebTier -->
<g id="edge2" class="edge">
<title>LoadBalancer&#45;&gt;WebTier</title>
<path fill="none" stroke="white" d="M386.85,-637.46C386.85,-637.46 386.85,-563.58 386.85,-563.58"/>
<polygon fill="white" stroke="white" points="390.35,-563.58 386.85,-553.58 383.35,-563.58 390.35,-563.58"/>
<text xml:space="preserve" text-anchor="middle" x="364.35" y="-602.27" font-family="Helvetica,sans-Serif" font-size="10.00" fill="white">distributes</text>
</g>
<!-- ApplicationTier -->
<g id="node4" class="node">
<title>ApplicationTier</title>
<path fill="black" stroke="white" d="M436.2,-424.2C436.2,-424.2 337.5,-424.2 337.5,-424.2 331.5,-424.2 325.5,-418.2 325.5,-412.2 325.5,-412.2 325.5,-394.65 325.5,-394.65 325.5,-388.65 331.5,-382.65 337.5,-382.65 337.5,-382.65 436.2,-382.65 436.2,-382.65 442.2,-382.65 448.2,-388.65 448.2,-394.65 448.2,-394.65 448.2,-412.2 448.2,-412.2 448.2,-418.2 442.2,-424.2 436.2,-424.2"/>
<text xml:space="preserve" text-anchor="middle" x="386.85" y="-398.4" font-family="Helvetica,sans-Serif" font-size="12.00" fill="white">ApplicationTier</text>
</g>
<!-- WebTier&#45;&gt;ApplicationTier -->
<g id="edge3" class="edge">
<title>WebTier&#45;&gt;ApplicationTier</title>
<path fill="none" stroke="white" d="M386.85,-509.91C386.85,-509.91 386.85,-436.03 386.85,-436.03"/>
<polygon fill="white" stroke="white" points="390.35,-436.03 386.85,-426.03 383.35,-436.03 390.35,-436.03"/>
<text xml:space="preserve" text-anchor="middle" x="376.72" y="-474.72" font-family="Helvetica,sans-Serif" font-size="10.00" fill="white">calls</text>
</g>
<!-- DatabaseTier -->
<g id="node5" class="node">
<title>DatabaseTier</title>
<path fill="black" stroke="white" d="M213.07,-296.65C213.07,-296.65 122.62,-296.65 122.62,-296.65 116.62,-296.65 110.62,-290.65 110.62,-284.65 110.62,-284.65 110.62,-267.1 110.62,-267.1 110.62,-261.1 116.62,-255.1 122.62,-255.1 122.62,-255.1 213.07,-255.1 213.07,-255.1 219.07,-255.1 225.07,-261.1 225.07,-267.1 225.07,-267.1 225.07,-284.65 225.07,-284.65 225.07,-290.65 219.07,-296.65 213.07,-296.65"/>
<text xml:space="preserve" text-anchor="middle" x="167.85" y="-270.85" font-family="Helvetica,sans-Serif" font-size="12.00" fill="white">DatabaseTier</text>
</g>
<!-- ApplicationTier&#45;&gt;DatabaseTier -->
<g id="edge4" class="edge">
<title>ApplicationTier&#45;&gt;DatabaseTier</title>
<path fill="none" stroke="white" d="M325.26,-403C260.49,-403 167.85,-403 167.85,-403 167.85,-403 167.85,-308.38 167.85,-308.38"/>
<polygon fill="white" stroke="white" points="171.35,-308.38 167.85,-298.38 164.35,-308.38 171.35,-308.38"/>
<text xml:space="preserve" text-anchor="middle" x="183.5" y="-404.75" font-family="Helvetica,sans-Serif" font-size="10.00" fill="white">queries</text>
</g>
<!-- CacheLayer -->
<g id="node6" class="node">
<title>CacheLayer</title>
<path fill="black" stroke="white" d="M429.08,-296.65C429.08,-296.65 344.62,-296.65 344.62,-296.65 338.62,-296.65 332.62,-290.65 332.62,-284.65 332.62,-284.65 332.62,-267.1 332.62,-267.1 332.62,-261.1 338.62,-255.1 344.62,-255.1 344.62,-255.1 429.08,-255.1 429.08,-255.1 435.08,-255.1 441.08,-261.1 441.08,-267.1 441.08,-267.1 441.08,-284.65 441.08,-284.65 441.08,-290.65 435.08,-296.65 429.08,-296.65"/>
<text xml:space="preserve" text-anchor="middle" x="386.85" y="-270.85" font-family="Helvetica,sans-Serif" font-size="12.00" fill="white">CacheLayer</text>
</g>
<!-- ApplicationTier&#45;&gt;CacheLayer -->
<g id="edge5" class="edge">
<title>ApplicationTier&#45;&gt;CacheLayer</title>
<path fill="none" stroke="white" d="M386.85,-382.36C386.85,-382.36 386.85,-308.48 386.85,-308.48"/>
<polygon fill="white" stroke="white" points="390.35,-308.48 386.85,-298.48 383.35,-308.48 390.35,-308.48"/>
<text xml:space="preserve" text-anchor="middle" x="371.1" y="-347.17" font-family="Helvetica,sans-Serif" font-size="10.00" fill="white">caches</text>
</g>
<!-- MessageQueue -->
<g id="node7" class="node">
<title>MessageQueue</title>
<path fill="black" stroke="white" d="M664.83,-296.65C664.83,-296.65 560.88,-296.65 560.88,-296.65 554.88,-296.65 548.88,-290.65 548.88,-284.65 548.88,-284.65 548.88,-267.1 548.88,-267.1 548.88,-261.1 554.88,-255.1 560.88,-255.1 560.88,-255.1 664.83,-255.1 664.83,-255.1 670.83,-255.1 676.83,-261.1 676.83,-267.1 676.83,-267.1 676.83,-284.65 676.83,-284.65 676.83,-290.65 670.83,-296.65 664.83,-296.65"/>
<text xml:space="preserve" text-anchor="middle" x="612.85" y="-270.85" font-family="Helvetica,sans-Serif" font-size="12.00" fill="white">MessageQueue</text>
</g>
<!-- ApplicationTier&#45;&gt;MessageQueue -->
<g id="edge6" class="edge">
<title>ApplicationTier&#45;&gt;MessageQueue</title>
<path fill="none" stroke="white" d="M444.64,-382.38C444.64,-346.19 444.64,-276 444.64,-276 444.64,-276 537.26,-276 537.26,-276"/>
<polygon fill="white" stroke="white" points="537.26,-279.5 547.26,-276 537.26,-272.5 537.26,-279.5"/>
<text xml:space="preserve" text-anchor="middle" x="465.26" y="-284.63" font-family="Helvetica,sans-Serif" font-size="10.00" fill="white">publishes</text>
</g>
<!-- PrimaryDB -->
<g id="node9" class="node">
<title>PrimaryDB</title>
<path fill="black" stroke="white" d="M89.7,-169.1C89.7,-169.1 12,-169.1 12,-169.1 6,-169.1 0,-163.1 0,-157.1 0,-157.1 0,-139.55 0,-139.55 0,-133.55 6,-127.55 12,-127.55 12,-127.55 89.7,-127.55 89.7,-127.55 95.7,-127.55 101.7,-133.55 101.7,-139.55 101.7,-139.55 101.7,-157.1 101.7,-157.1 101.7,-163.1 95.7,-169.1 89.7,-169.1"/>
<text xml:space="preserve" text-anchor="middle" x="50.85" y="-143.3" font-family="Helvetica,sans-Serif" font-size="12.00" fill="white">PrimaryDB</text>
</g>
<!-- DatabaseTier&#45;&gt;PrimaryDB -->
<g id="edge8" class="edge">
<title>DatabaseTier&#45;&gt;PrimaryDB</title>
<path fill="none" stroke="white" d="M160.19,-254.76C160.19,-218.44 160.19,-148 160.19,-148 160.19,-148 113.51,-148 113.51,-148"/>
<polygon fill="white" stroke="white" points="113.51,-144.5 103.51,-148 113.51,-151.5 113.51,-144.5"/>
<text xml:space="preserve" text-anchor="middle" x="139.19" y="-179.79" font-family="Helvetica,sans-Serif" font-size="10.00" fill="white">replicates</text>
</g>
<!-- SecondaryDB -->
<g id="node10" class="node">
<title>SecondaryDB</title>
<path fill="black" stroke="white" d="M315.95,-169.1C315.95,-169.1 221.75,-169.1 221.75,-169.1 215.75,-169.1 209.75,-163.1 209.75,-157.1 209.75,-157.1 209.75,-139.55 209.75,-139.55 209.75,-133.55 215.75,-127.55 221.75,-127.55 221.75,-127.55 315.95,-127.55 315.95,-127.55 321.95,-127.55 327.95,-133.55 327.95,-139.55 327.95,-139.55 327.95,-157.1 327.95,-157.1 327.95,-163.1 321.95,-169.1 315.95,-169.1"/>
<text xml:space="preserve" text-anchor="middle" x="268.85" y="-143.3" font-family="Helvetica,sans-Serif" font-size="12.00" fill="white">SecondaryDB</text>
</g>
<!-- DatabaseTier&#45;&gt;SecondaryDB -->
<g id="edge9" class="edge">
<title>DatabaseTier&#45;&gt;SecondaryDB</title>
<path fill="none" stroke="white" d="M217.41,-254.81C217.41,-254.81 217.41,-180.93 217.41,-180.93"/>
<polygon fill="white" stroke="white" points="220.91,-180.93 217.41,-170.93 213.91,-180.93 220.91,-180.93"/>
<text xml:space="preserve" text-anchor="middle" x="204.29" y="-219.62" font-family="Helvetica,sans-Serif" font-size="10.00" fill="white">syncs</text>
</g>
<!-- BackgroundServices -->
<g id="node8" class="node">
<title>BackgroundServices</title>
<path fill="black" stroke="white" d="M677.95,-169.1C677.95,-169.1 547.75,-169.1 547.75,-169.1 541.75,-169.1 535.75,-163.1 535.75,-157.1 535.75,-157.1 535.75,-139.55 535.75,-139.55 535.75,-133.55 541.75,-127.55 547.75,-127.55 547.75,-127.55 677.95,-127.55 677.95,-127.55 683.95,-127.55 689.95,-133.55 689.95,-139.55 689.95,-139.55 689.95,-157.1 689.95,-157.1 689.95,-163.1 683.95,-169.1 677.95,-169.1"/>
<text xml:space="preserve" text-anchor="middle" x="612.85" y="-143.3" font-family="Helvetica,sans-Serif" font-size="12.00" fill="white">BackgroundServices</text>
</g>
<!-- MessageQueue&#45;&gt;BackgroundServices -->
<g id="edge7" class="edge">
<title>MessageQueue&#45;&gt;BackgroundServices</title>
<path fill="none" stroke="white" d="M612.85,-254.81C612.85,-254.81 612.85,-180.93 612.85,-180.93"/>
<polygon fill="white" stroke="white" points="616.35,-180.93 612.85,-170.93 609.35,-180.93 616.35,-180.93"/>
<text xml:space="preserve" text-anchor="middle" x="596.73" y="-219.62" font-family="Helvetica,sans-Serif" font-size="10.00" fill="white">triggers</text>
</g>
<!-- ExternalAPI -->
<g id="node11" class="node">
<title>ExternalAPI</title>
<path fill="black" stroke="white" d="M547.33,-41.55C547.33,-41.55 464.38,-41.55 464.38,-41.55 458.38,-41.55 452.38,-35.55 452.38,-29.55 452.38,-29.55 452.38,-12 452.38,-12 452.38,-6 458.38,0 464.38,0 464.38,0 547.33,0 547.33,0 553.33,0 559.33,-6 559.33,-12 559.33,-12 559.33,-29.55 559.33,-29.55 559.33,-35.55 553.33,-41.55 547.33,-41.55"/>
<text xml:space="preserve" text-anchor="middle" x="505.85" y="-15.75" font-family="Helvetica,sans-Serif" font-size="12.00" fill="white">ExternalAPI</text>
</g>
<!-- BackgroundServices&#45;&gt;ExternalAPI -->
<g id="edge10" class="edge">
<title>BackgroundServices&#45;&gt;ExternalAPI</title>
<path fill="none" stroke="white" d="M547.54,-127.26C547.54,-127.26 547.54,-53.38 547.54,-53.38"/>
<polygon fill="white" stroke="white" points="551.04,-53.38 547.54,-43.38 544.04,-53.38 551.04,-53.38"/>
<text xml:space="preserve" text-anchor="middle" x="526.16" y="-92.07" font-family="Helvetica,sans-Serif" font-size="10.00" fill="white">integrates</text>
</g>
<!-- FileStorage -->
<g id="node12" class="node">
<title>FileStorage</title>
<path fill="black" stroke="white" d="M760.58,-41.55C760.58,-41.55 679.12,-41.55 679.12,-41.55 673.12,-41.55 667.12,-35.55 667.12,-29.55 667.12,-29.55 667.12,-12 667.12,-12 667.12,-6 673.12,0 679.12,0 679.12,0 760.58,0 760.58,0 766.58,0 772.58,-6 772.58,-12 772.58,-12 772.58,-29.55 772.58,-29.55 772.58,-35.55 766.58,-41.55 760.58,-41.55"/>
<text xml:space="preserve" text-anchor="middle" x="719.85" y="-15.75" font-family="Helvetica,sans-Serif" font-size="12.00" fill="white">FileStorage</text>
</g>
<!-- BackgroundServices&#45;&gt;FileStorage -->
<g id="edge11" class="edge">
<title>BackgroundServices&#45;&gt;FileStorage</title>
<path fill="none" stroke="white" d="M678.54,-127.26C678.54,-127.26 678.54,-53.38 678.54,-53.38"/>
<polygon fill="white" stroke="white" points="682.04,-53.38 678.54,-43.38 675.04,-53.38 682.04,-53.38"/>
<text xml:space="preserve" text-anchor="middle" x="665.04" y="-92.07" font-family="Helvetica,sans-Serif" font-size="10.00" fill="white">stores</text>
</g>
</g>
</svg>
