<?xml version="1.0" encoding="UTF-8" standalone="no"?>
<!DOCTYPE svg PUBLIC "-//W3C//DTD SVG 1.1//EN"
 "http://www.w3.org/Graphics/SVG/1.1/DTD/svg11.dtd">
<!-- Generated by graphviz version 13.0.0 (20250608.1624)
 -->
<!-- Pages: 1 -->
<svg width="3849pt" height="1361pt"
 viewBox="0.00 0.00 3849.00 1361.00" xmlns="http://www.w3.org/2000/svg" xmlns:xlink="http://www.w3.org/1999/xlink">
<g id="graph0" class="graph" transform="scale(4.16667 4.16667) rotate(0) translate(28.8 297.8)">
<polygon fill="#f8f9fa" stroke="none" points="-28.8,28.8 -28.8,-297.8 895.05,-297.8 895.05,28.8 -28.8,28.8"/>
<!-- Code -->
<g id="node1" class="node">
<title>Code</title>
<path fill="#6f42c1" stroke="#6f42c1" d="M56.25,-160C56.25,-160 12,-160 12,-160 6,-160 0,-154 0,-148 0,-148 0,-121 0,-121 0,-115 6,-109 12,-109 12,-109 56.25,-109 56.25,-109 62.25,-109 68.25,-115 68.25,-121 68.25,-121 68.25,-148 68.25,-148 68.25,-154 62.25,-160 56.25,-160"/>
<text xml:space="preserve" text-anchor="middle" x="34.12" y="-129.65" font-family="Helvetica,sans-Serif" font-size="13.00" fill="white">Code</text>
</g>
<!-- GitHub -->
<g id="node2" class="node">
<title>GitHub</title>
<path fill="#6f42c1" stroke="#6f42c1" d="M241.5,-160C241.5,-160 188.25,-160 188.25,-160 182.25,-160 176.25,-154 176.25,-148 176.25,-148 176.25,-121 176.25,-121 176.25,-115 182.25,-109 188.25,-109 188.25,-109 241.5,-109 241.5,-109 247.5,-109 253.5,-115 253.5,-121 253.5,-121 253.5,-148 253.5,-148 253.5,-154 247.5,-160 241.5,-160"/>
<text xml:space="preserve" text-anchor="middle" x="214.88" y="-129.65" font-family="Helvetica,sans-Serif" font-size="13.00" fill="white">GitHub</text>
</g>
<!-- Code&#45;&gt;GitHub -->
<g id="edge1" class="edge">
<title>Code&#45;&gt;GitHub</title>
<path fill="none" stroke="#d2b8ff" stroke-width="1.5" d="M68.75,-134.5C95.5,-134.5 133.35,-134.5 163.69,-134.5"/>
<polygon fill="#d2b8ff" stroke="#d2b8ff" stroke-width="1.5" points="163.49,-138 173.49,-134.5 163.49,-131 163.49,-138"/>
<text xml:space="preserve" text-anchor="middle" x="100.09" y="-125" font-family="Helvetica,sans-Serif" font-size="10.00" fill="#6f42c1">commit</text>
</g>
<!-- Jenkins -->
<g id="node3" class="node">
<title>Jenkins</title>
<path fill="#6f42c1" stroke="#6f42c1" d="M431.25,-160C431.25,-160 373.5,-160 373.5,-160 367.5,-160 361.5,-154 361.5,-148 361.5,-148 361.5,-121 361.5,-121 361.5,-115 367.5,-109 373.5,-109 373.5,-109 431.25,-109 431.25,-109 437.25,-109 443.25,-115 443.25,-121 443.25,-121 443.25,-148 443.25,-148 443.25,-154 437.25,-160 431.25,-160"/>
<text xml:space="preserve" text-anchor="middle" x="402.38" y="-129.65" font-family="Helvetica,sans-Serif" font-size="13.00" fill="white">Jenkins</text>
</g>
<!-- GitHub&#45;&gt;Jenkins -->
<g id="edge2" class="edge">
<title>GitHub&#45;&gt;Jenkins</title>
<path fill="none" stroke="#d2b8ff" stroke-width="1.5" d="M253.86,-134.5C281.34,-134.5 318.82,-134.5 349.12,-134.5"/>
<polygon fill="#d2b8ff" stroke="#d2b8ff" stroke-width="1.5" points="348.92,-138 358.92,-134.5 348.92,-131 348.92,-138"/>
<text xml:space="preserve" text-anchor="middle" x="281.99" y="-125" font-family="Helvetica,sans-Serif" font-size="10.00" fill="#6f42c1">webhook</text>
</g>
<!-- Docker -->
<g id="node4" class="node">
<title>Docker</title>
<path fill="#6f42c1" stroke="#6f42c1" d="M631.12,-269C631.12,-269 576.38,-269 576.38,-269 570.38,-269 564.38,-263 564.38,-257 564.38,-257 564.38,-230 564.38,-230 564.38,-224 570.38,-218 576.38,-218 576.38,-218 631.12,-218 631.12,-218 637.12,-218 643.12,-224 643.12,-230 643.12,-230 643.12,-257 643.12,-257 643.12,-263 637.12,-269 631.12,-269"/>
<text xml:space="preserve" text-anchor="middle" x="603.75" y="-238.65" font-family="Helvetica,sans-Serif" font-size="13.00" fill="white">Docker</text>
</g>
<!-- Jenkins&#45;&gt;Docker -->
<g id="edge3" class="edge">
<title>Jenkins&#45;&gt;Docker</title>
<path fill="none" stroke="#d2b8ff" stroke-width="1.5" d="M443.72,-156.56C475.45,-173.9 519.78,-198.14 553.58,-216.62"/>
<polygon fill="#d2b8ff" stroke="#d2b8ff" stroke-width="1.5" points="551.71,-219.59 562.17,-221.31 555.07,-213.44 551.71,-219.59"/>
<text xml:space="preserve" text-anchor="middle" x="488.53" y="-177.09" font-family="Helvetica,sans-Serif" font-size="10.00" fill="#6f42c1">build</text>
</g>
<!-- TestRunner -->
<g id="node5" class="node">
<title>TestRunner</title>
<path fill="#6f42c1" stroke="#6f42c1" d="M644.25,-160C644.25,-160 563.25,-160 563.25,-160 557.25,-160 551.25,-154 551.25,-148 551.25,-148 551.25,-121 551.25,-121 551.25,-115 557.25,-109 563.25,-109 563.25,-109 644.25,-109 644.25,-109 650.25,-109 656.25,-115 656.25,-121 656.25,-121 656.25,-148 656.25,-148 656.25,-154 650.25,-160 644.25,-160"/>
<text xml:space="preserve" text-anchor="middle" x="603.75" y="-129.65" font-family="Helvetica,sans-Serif" font-size="13.00" fill="white">TestRunner</text>
</g>
<!-- Jenkins&#45;&gt;TestRunner -->
<g id="edge4" class="edge">
<title>Jenkins&#45;&gt;TestRunner</title>
<path fill="none" stroke="#d2b8ff" stroke-width="1.5" d="M443.72,-134.5C471.04,-134.5 507.72,-134.5 538.96,-134.5"/>
<polygon fill="#d2b8ff" stroke="#d2b8ff" stroke-width="1.5" points="538.81,-138 548.81,-134.5 538.81,-131 538.81,-138"/>
<text xml:space="preserve" text-anchor="middle" x="483.09" y="-125" font-family="Helvetica,sans-Serif" font-size="10.00" fill="#6f42c1">test</text>
</g>
<!-- Kubernetes -->
<g id="node6" class="node">
<title>Kubernetes</title>
<path fill="#6f42c1" stroke="#6f42c1" d="M644.25,-51C644.25,-51 563.25,-51 563.25,-51 557.25,-51 551.25,-45 551.25,-39 551.25,-39 551.25,-12 551.25,-12 551.25,-6 557.25,0 563.25,0 563.25,0 644.25,0 644.25,0 650.25,0 656.25,-6 656.25,-12 656.25,-12 656.25,-39 656.25,-39 656.25,-45 650.25,-51 644.25,-51"/>
<text xml:space="preserve" text-anchor="middle" x="603.75" y="-20.65" font-family="Helvetica,sans-Serif" font-size="13.00" fill="white">Kubernetes</text>
</g>
<!-- Jenkins&#45;&gt;Kubernetes -->
<g id="edge5" class="edge">
<title>Jenkins&#45;&gt;Kubernetes</title>
<path fill="none" stroke="#d2b8ff" stroke-width="1.5" d="M443.72,-112.44C472.75,-96.57 512.35,-74.92 544.76,-57.2"/>
<polygon fill="#d2b8ff" stroke="#d2b8ff" stroke-width="1.5" points="546.37,-60.31 553.46,-52.45 543.01,-54.17 546.37,-60.31"/>
<text xml:space="preserve" text-anchor="middle" x="479.99" y="-75.32" font-family="Helvetica,sans-Serif" font-size="10.00" fill="#6f42c1">deploy</text>
</g>
<!-- Dashboard -->
<g id="node8" class="node">
<title>Dashboard</title>
<path fill="#6f42c1" stroke="#6f42c1" d="M854.25,-160C854.25,-160 776.25,-160 776.25,-160 770.25,-160 764.25,-154 764.25,-148 764.25,-148 764.25,-121 764.25,-121 764.25,-115 770.25,-109 776.25,-109 776.25,-109 854.25,-109 854.25,-109 860.25,-109 866.25,-115 866.25,-121 866.25,-121 866.25,-148 866.25,-148 866.25,-154 860.25,-160 854.25,-160"/>
<text xml:space="preserve" text-anchor="middle" x="815.25" y="-129.65" font-family="Helvetica,sans-Serif" font-size="13.00" fill="white">Dashboard</text>
</g>
<!-- TestRunner&#45;&gt;Dashboard -->
<g id="edge7" class="edge">
<title>TestRunner&#45;&gt;Dashboard</title>
<path fill="none" stroke="#d2b8ff" stroke-width="1.5" d="M656.54,-134.5C685.29,-134.5 721.27,-134.5 751.6,-134.5"/>
<polygon fill="#d2b8ff" stroke="#d2b8ff" stroke-width="1.5" points="751.51,-138 761.51,-134.5 751.51,-131 751.51,-138"/>
<text xml:space="preserve" text-anchor="middle" x="691.69" y="-125" font-family="Helvetica,sans-Serif" font-size="10.00" fill="#6f42c1">report</text>
</g>
<!-- Cloud -->
<g id="node7" class="node">
<title>Cloud</title>
<path fill="#6f42c1" stroke="#6f42c1" d="M838.88,-51C838.88,-51 791.62,-51 791.62,-51 785.62,-51 779.62,-45 779.62,-39 779.62,-39 779.62,-12 779.62,-12 779.62,-6 785.62,0 791.62,0 791.62,0 838.88,0 838.88,0 844.88,0 850.88,-6 850.88,-12 850.88,-12 850.88,-39 850.88,-39 850.88,-45 844.88,-51 838.88,-51"/>
<text xml:space="preserve" text-anchor="middle" x="815.25" y="-20.65" font-family="Helvetica,sans-Serif" font-size="13.00" fill="white">Cloud</text>
</g>
<!-- Kubernetes&#45;&gt;Cloud -->
<g id="edge6" class="edge">
<title>Kubernetes&#45;&gt;Cloud</title>
<path fill="none" stroke="#d2b8ff" stroke-width="1.5" d="M656.54,-25.5C690.49,-25.5 734.51,-25.5 767.42,-25.5"/>
<polygon fill="#d2b8ff" stroke="#d2b8ff" stroke-width="1.5" points="767.17,-29 777.17,-25.5 767.17,-22 767.17,-29"/>
<text xml:space="preserve" text-anchor="middle" x="700.35" y="-16" font-family="Helvetica,sans-Serif" font-size="10.00" fill="#6f42c1">scale</text>
</g>
</g>
</svg>
