<?xml version="1.0" encoding="UTF-8" standalone="no"?>
<!DOCTYPE svg PUBLIC "-//W3C//DTD SVG 1.1//EN"
 "http://www.w3.org/Graphics/SVG/1.1/DTD/svg11.dtd">
<!-- Generated by graphviz version 13.1.2 (20250808.2320)
 -->
<!-- Pages: 1 -->
<svg width="2747pt" height="2620pt"
 viewBox="0.00 0.00 2747.00 2620.00" xmlns="http://www.w3.org/2000/svg" xmlns:xlink="http://www.w3.org/1999/xlink">
<g id="graph0" class="graph" transform="scale(4.16667 4.16667) rotate(0) translate(14.4 614.4)">
<polygon fill="black" stroke="none" points="-14.4,14.4 -14.4,-614.4 645,-614.4 645,14.4 -14.4,14.4"/>
<!-- Client -->
<g id="node1" class="node">
<title>Client</title>
<polygon fill="black" stroke="white" points="347.85,-600 281.25,-600 281.25,-564 347.85,-564 347.85,-600"/>
<text xml:space="preserve" text-anchor="middle" x="314.55" y="-577.73" font-family="Courier,monospace" font-size="12.00" fill="white">Client</text>
</g>
<!-- LoadBalancer -->
<g id="node2" class="node">
<title>LoadBalancer</title>
<polygon fill="black" stroke="white" points="370.35,-506 258.75,-506 258.75,-470 370.35,-470 370.35,-506"/>
<text xml:space="preserve" text-anchor="middle" x="314.55" y="-483.73" font-family="Courier,monospace" font-size="12.00" fill="white">LoadBalancer</text>
</g>
<!-- Client&#45;&gt;LoadBalancer -->
<g id="edge1" class="edge">
<title>Client&#45;&gt;LoadBalancer</title>
<path fill="none" stroke="white" stroke-width="0.8" d="M314.55,-563.88C314.55,-563.88 314.55,-517.6 314.55,-517.6"/>
<polygon fill="white" stroke="white" stroke-width="0.8" points="318.05,-517.6 314.55,-507.6 311.05,-517.6 318.05,-517.6"/>
</g>
<!-- WebTier -->
<g id="node3" class="node">
<title>WebTier</title>
<polygon fill="black" stroke="white" points="351.6,-412 277.5,-412 277.5,-376 351.6,-376 351.6,-412"/>
<text xml:space="preserve" text-anchor="middle" x="314.55" y="-389.73" font-family="Courier,monospace" font-size="12.00" fill="white">WebTier</text>
</g>
<!-- LoadBalancer&#45;&gt;WebTier -->
<g id="edge2" class="edge">
<title>LoadBalancer&#45;&gt;WebTier</title>
<path fill="none" stroke="white" stroke-width="0.8" d="M314.55,-469.88C314.55,-469.88 314.55,-423.6 314.55,-423.6"/>
<polygon fill="white" stroke="white" stroke-width="0.8" points="318.05,-423.6 314.55,-413.6 311.05,-423.6 318.05,-423.6"/>
<text xml:space="preserve" text-anchor="middle" x="273.3" y="-449.59" font-family="Courier,monospace" font-size="12.00" fill="white">distributes</text>
</g>
<!-- ApplicationTier -->
<g id="node4" class="node">
<title>ApplicationTier</title>
<polygon fill="black" stroke="white" points="381.6,-318 247.5,-318 247.5,-282 381.6,-282 381.6,-318"/>
<text xml:space="preserve" text-anchor="middle" x="314.55" y="-295.73" font-family="Courier,monospace" font-size="12.00" fill="white">ApplicationTier</text>
</g>
<!-- WebTier&#45;&gt;ApplicationTier -->
<g id="edge3" class="edge">
<title>WebTier&#45;&gt;ApplicationTier</title>
<path fill="none" stroke="white" stroke-width="0.8" d="M314.55,-375.88C314.55,-375.88 314.55,-329.6 314.55,-329.6"/>
<polygon fill="white" stroke="white" stroke-width="0.8" points="318.05,-329.6 314.55,-319.6 311.05,-329.6 318.05,-329.6"/>
<text xml:space="preserve" text-anchor="middle" x="295.8" y="-355.59" font-family="Courier,monospace" font-size="12.00" fill="white">calls</text>
</g>
<!-- DatabaseTier -->
<g id="node5" class="node">
<title>DatabaseTier</title>
<polygon fill="black" stroke="white" points="194.35,-224 82.75,-224 82.75,-188 194.35,-188 194.35,-224"/>
<text xml:space="preserve" text-anchor="middle" x="138.55" y="-201.72" font-family="Courier,monospace" font-size="12.00" fill="white">DatabaseTier</text>
</g>
<!-- ApplicationTier&#45;&gt;DatabaseTier -->
<g id="edge4" class="edge">
<title>ApplicationTier&#45;&gt;DatabaseTier</title>
<path fill="none" stroke="white" stroke-width="0.8" d="M256.55,-281.88C256.55,-254.56 256.55,-206 256.55,-206 256.55,-206 206,-206 206,-206"/>
<polygon fill="white" stroke="white" stroke-width="0.8" points="206,-202.5 196,-206 206,-209.5 206,-202.5"/>
<text xml:space="preserve" text-anchor="middle" x="230.3" y="-221.51" font-family="Courier,monospace" font-size="12.00" fill="white">queries</text>
</g>
<!-- CacheLayer -->
<g id="node6" class="node">
<title>CacheLayer</title>
<polygon fill="black" stroke="white" points="362.85,-224 266.25,-224 266.25,-188 362.85,-188 362.85,-224"/>
<text xml:space="preserve" text-anchor="middle" x="314.55" y="-201.72" font-family="Courier,monospace" font-size="12.00" fill="white">CacheLayer</text>
</g>
<!-- ApplicationTier&#45;&gt;CacheLayer -->
<g id="edge5" class="edge">
<title>ApplicationTier&#45;&gt;CacheLayer</title>
<path fill="none" stroke="white" stroke-width="0.8" d="M314.55,-281.88C314.55,-281.88 314.55,-235.6 314.55,-235.6"/>
<polygon fill="white" stroke="white" stroke-width="0.8" points="318.05,-235.6 314.55,-225.6 311.05,-235.6 318.05,-235.6"/>
<text xml:space="preserve" text-anchor="middle" x="292.05" y="-261.59" font-family="Courier,monospace" font-size="12.00" fill="white">caches</text>
</g>
<!-- MessageQueue -->
<g id="node7" class="node">
<title>MessageQueue</title>
<polygon fill="black" stroke="white" points="546.35,-224 434.75,-224 434.75,-188 546.35,-188 546.35,-224"/>
<text xml:space="preserve" text-anchor="middle" x="490.55" y="-201.72" font-family="Courier,monospace" font-size="12.00" fill="white">MessageQueue</text>
</g>
<!-- ApplicationTier&#45;&gt;MessageQueue -->
<g id="edge6" class="edge">
<title>ApplicationTier&#45;&gt;MessageQueue</title>
<path fill="none" stroke="white" stroke-width="0.8" d="M372.23,-281.88C372.23,-254.56 372.23,-206 372.23,-206 372.23,-206 423.3,-206 423.3,-206"/>
<polygon fill="white" stroke="white" stroke-width="0.8" points="423.3,-209.5 433.3,-206 423.3,-202.5 423.3,-209.5"/>
<text xml:space="preserve" text-anchor="middle" x="405.98" y="-221.25" font-family="Courier,monospace" font-size="12.00" fill="white">publishes</text>
</g>
<!-- PrimaryDB -->
<g id="node9" class="node">
<title>PrimaryDB</title>
<polygon fill="black" stroke="white" points="89.1,-130 0,-130 0,-94 89.1,-94 89.1,-130"/>
<text xml:space="preserve" text-anchor="middle" x="44.55" y="-107.72" font-family="Courier,monospace" font-size="12.00" fill="white">PrimaryDB</text>
</g>
<!-- DatabaseTier&#45;&gt;PrimaryDB -->
<g id="edge8" class="edge">
<title>DatabaseTier&#45;&gt;PrimaryDB</title>
<path fill="none" stroke="white" stroke-width="0.8" d="M125.3,-187.88C125.3,-160.56 125.3,-112 125.3,-112 125.3,-112 100.39,-112 100.39,-112"/>
<polygon fill="white" stroke="white" stroke-width="0.8" points="100.39,-108.5 90.39,-112 100.39,-115.5 100.39,-108.5"/>
<text xml:space="preserve" text-anchor="middle" x="87.8" y="-140.33" font-family="Courier,monospace" font-size="12.00" fill="white">replicates</text>
</g>
<!-- SecondaryDB -->
<g id="node10" class="node">
<title>SecondaryDB</title>
<polygon fill="black" stroke="white" points="265.6,-130 161.5,-130 161.5,-94 265.6,-94 265.6,-130"/>
<text xml:space="preserve" text-anchor="middle" x="213.55" y="-107.72" font-family="Courier,monospace" font-size="12.00" fill="white">SecondaryDB</text>
</g>
<!-- DatabaseTier&#45;&gt;SecondaryDB -->
<g id="edge9" class="edge">
<title>DatabaseTier&#45;&gt;SecondaryDB</title>
<path fill="none" stroke="white" stroke-width="0.8" d="M177.93,-187.88C177.93,-187.88 177.93,-141.6 177.93,-141.6"/>
<polygon fill="white" stroke="white" stroke-width="0.8" points="181.43,-141.6 177.93,-131.6 174.43,-141.6 181.43,-141.6"/>
<text xml:space="preserve" text-anchor="middle" x="159.18" y="-167.59" font-family="Courier,monospace" font-size="12.00" fill="white">syncs</text>
</g>
<!-- BackgroundServices -->
<g id="node8" class="node">
<title>BackgroundServices</title>
<polygon fill="black" stroke="white" points="568.85,-130 412.25,-130 412.25,-94 568.85,-94 568.85,-130"/>
<text xml:space="preserve" text-anchor="middle" x="490.55" y="-107.72" font-family="Courier,monospace" font-size="12.00" fill="white">BackgroundServices</text>
</g>
<!-- MessageQueue&#45;&gt;BackgroundServices -->
<g id="edge7" class="edge">
<title>MessageQueue&#45;&gt;BackgroundServices</title>
<path fill="none" stroke="white" stroke-width="0.8" d="M490.55,-187.88C490.55,-187.88 490.55,-141.6 490.55,-141.6"/>
<polygon fill="white" stroke="white" stroke-width="0.8" points="494.05,-141.6 490.55,-131.6 487.05,-141.6 494.05,-141.6"/>
<text xml:space="preserve" text-anchor="middle" x="460.55" y="-167.59" font-family="Courier,monospace" font-size="12.00" fill="white">triggers</text>
</g>
<!-- ExternalAPI -->
<g id="node11" class="node">
<title>ExternalAPI</title>
<polygon fill="black" stroke="white" points="454.6,-36 350.5,-36 350.5,0 454.6,0 454.6,-36"/>
<text xml:space="preserve" text-anchor="middle" x="402.55" y="-13.72" font-family="Courier,monospace" font-size="12.00" fill="white">ExternalAPI</text>
</g>
<!-- BackgroundServices&#45;&gt;ExternalAPI -->
<g id="edge10" class="edge">
<title>BackgroundServices&#45;&gt;ExternalAPI</title>
<path fill="none" stroke="white" stroke-width="0.8" d="M433.43,-93.88C433.43,-93.88 433.43,-47.6 433.43,-47.6"/>
<polygon fill="white" stroke="white" stroke-width="0.8" points="436.93,-47.6 433.43,-37.6 429.93,-47.6 436.93,-47.6"/>
<text xml:space="preserve" text-anchor="middle" x="395.93" y="-73.59" font-family="Courier,monospace" font-size="12.00" fill="white">integrates</text>
</g>
<!-- FileStorage -->
<g id="node12" class="node">
<title>FileStorage</title>
<polygon fill="black" stroke="white" points="630.6,-36 526.5,-36 526.5,0 630.6,0 630.6,-36"/>
<text xml:space="preserve" text-anchor="middle" x="578.55" y="-13.72" font-family="Courier,monospace" font-size="12.00" fill="white">FileStorage</text>
</g>
<!-- BackgroundServices&#45;&gt;FileStorage -->
<g id="edge11" class="edge">
<title>BackgroundServices&#45;&gt;FileStorage</title>
<path fill="none" stroke="white" stroke-width="0.8" d="M547.67,-93.88C547.67,-93.88 547.67,-47.6 547.67,-47.6"/>
<polygon fill="white" stroke="white" stroke-width="0.8" points="551.18,-47.6 547.68,-37.6 544.18,-47.6 551.18,-47.6"/>
<text xml:space="preserve" text-anchor="middle" x="525.18" y="-73.59" font-family="Courier,monospace" font-size="12.00" fill="white">stores</text>
</g>
</g>
</svg>
