<?xml version="1.0" encoding="UTF-8" standalone="no"?>
<!DOCTYPE svg PUBLIC "-//W3C//DTD SVG 1.1//EN"
 "http://www.w3.org/Graphics/SVG/1.1/DTD/svg11.dtd">
<!-- Generated by graphviz version 13.1.2 (20250808.2320)
 -->
<!-- Pages: 1 -->
<svg width="3406pt" height="2364pt"
 viewBox="0.00 0.00 3406.00 2364.00" xmlns="http://www.w3.org/2000/svg" xmlns:xlink="http://www.w3.org/1999/xlink">
<g id="graph0" class="graph" transform="scale(4.16667 4.16667) rotate(0) translate(14.4 553)">
<polygon fill="black" stroke="none" points="-14.4,14.4 -14.4,-553 803,-553 803,14.4 -14.4,14.4"/>
<!-- User -->
<g id="node1" class="node">
<title>User</title>
<ellipse fill="black" stroke="white" cx="326.05" cy="-518.35" rx="36.49" ry="20.26"/>
<text xml:space="preserve" text-anchor="middle" x="326.05" y="-514.07" font-family="Courier,monospace" font-size="12.00" fill="white">User</text>
</g>
<!-- LoadBalancer -->
<g id="node2" class="node">
<title>LoadBalancer</title>
<path fill="black" stroke="white" d="M381.85,-436.51C381.85,-438.48 356.84,-440.09 326.05,-440.09 295.26,-440.09 270.25,-438.48 270.25,-436.51 270.25,-436.51 270.25,-404.27 270.25,-404.27 270.25,-402.3 295.26,-400.69 326.05,-400.69 356.84,-400.69 381.85,-402.3 381.85,-404.27 381.85,-404.27 381.85,-436.51 381.85,-436.51"/>
<path fill="none" stroke="white" d="M381.85,-436.51C381.85,-434.53 356.84,-432.93 326.05,-432.93 295.26,-432.93 270.25,-434.53 270.25,-436.51"/>
<text xml:space="preserve" text-anchor="middle" x="326.05" y="-416.12" font-family="Courier,monospace" font-size="12.00" fill="white">LoadBalancer</text>
</g>
<!-- User&#45;&gt;LoadBalancer -->
<g id="edge1" class="edge">
<title>User&#45;&gt;LoadBalancer</title>
<path fill="none" stroke="white" stroke-width="0.8" d="M326.05,-498.05C326.05,-498.05 326.05,-451.54 326.05,-451.54"/>
<polygon fill="white" stroke="white" stroke-width="0.8" points="329.55,-451.54 326.05,-441.54 322.55,-451.54 329.55,-451.54"/>
</g>
<!-- APIServer -->
<g id="node3" class="node">
<title>APIServer</title>
<polygon fill="black" stroke="white" points="370.6,-342.69 281.5,-342.69 281.5,-338.69 277.5,-338.69 277.5,-334.69 281.5,-334.69 281.5,-314.69 277.5,-314.69 277.5,-310.69 281.5,-310.69 281.5,-306.69 370.6,-306.69 370.6,-342.69"/>
<polyline fill="none" stroke="white" points="281.5,-338.69 285.5,-338.69 285.5,-334.69 281.5,-334.69"/>
<polyline fill="none" stroke="white" points="281.5,-314.69 285.5,-314.69 285.5,-310.69 281.5,-310.69"/>
<text xml:space="preserve" text-anchor="middle" x="326.05" y="-320.42" font-family="Courier,monospace" font-size="12.00" fill="white">APIServer</text>
</g>
<!-- LoadBalancer&#45;&gt;APIServer -->
<g id="edge2" class="edge">
<title>LoadBalancer&#45;&gt;APIServer</title>
<path fill="none" stroke="white" stroke-width="0.8" d="M326.05,-400.56C326.05,-400.56 326.05,-354.09 326.05,-354.09"/>
<polygon fill="white" stroke="white" stroke-width="0.8" points="329.55,-354.09 326.05,-344.09 322.55,-354.09 329.55,-354.09"/>
<text xml:space="preserve" text-anchor="middle" x="284.8" y="-380.18" font-family="Courier,monospace" font-size="12.00" fill="white">distributes</text>
</g>
<!-- AuthService -->
<g id="node4" class="node">
<title>AuthService</title>
<polygon fill="black" stroke="white" points="104.1,-238.04 0,-238.04 0,-234.04 -4,-234.04 -4,-230.04 0,-230.04 0,-210.04 -4,-210.04 -4,-206.04 0,-206.04 0,-202.04 104.1,-202.04 104.1,-238.04"/>
<polyline fill="none" stroke="white" points="0,-234.04 4,-234.04 4,-230.04 0,-230.04"/>
<polyline fill="none" stroke="white" points="0,-210.04 4,-210.04 4,-206.04 0,-206.04"/>
<text xml:space="preserve" text-anchor="middle" x="52.05" y="-215.77" font-family="Courier,monospace" font-size="12.00" fill="white">AuthService</text>
</g>
<!-- APIServer&#45;&gt;AuthService -->
<g id="edge3" class="edge">
<title>APIServer&#45;&gt;AuthService</title>
<path fill="none" stroke="white" stroke-width="0.8" d="M281.11,-325C203.38,-325 52.05,-325 52.05,-325 52.05,-325 52.05,-249.54 52.05,-249.54"/>
<polygon fill="white" stroke="white" stroke-width="0.8" points="55.55,-249.54 52.05,-239.54 48.55,-249.54 55.55,-249.54"/>
<text xml:space="preserve" text-anchor="middle" x="110.1" y="-327.85" font-family="Courier,monospace" font-size="12.00" fill="white">calls</text>
</g>
<!-- MySQLDatabase -->
<g id="node5" class="node">
<title>MySQLDatabase</title>
<path fill="black" stroke="white" d="M295.6,-236.16C295.6,-238.14 268.91,-239.74 236.05,-239.74 203.19,-239.74 176.5,-238.14 176.5,-236.16 176.5,-236.16 176.5,-203.93 176.5,-203.93 176.5,-201.95 203.19,-200.35 236.05,-200.35 268.91,-200.35 295.6,-201.95 295.6,-203.93 295.6,-203.93 295.6,-236.16 295.6,-236.16"/>
<path fill="none" stroke="white" d="M295.6,-236.16C295.6,-234.18 268.91,-232.58 236.05,-232.58 203.19,-232.58 176.5,-234.18 176.5,-236.16"/>
<text xml:space="preserve" text-anchor="middle" x="236.05" y="-215.77" font-family="Courier,monospace" font-size="12.00" fill="white">MySQLDatabase</text>
</g>
<!-- APIServer&#45;&gt;MySQLDatabase -->
<g id="edge4" class="edge">
<title>APIServer&#45;&gt;MySQLDatabase</title>
<path fill="none" stroke="white" stroke-width="0.8" d="M288.55,-306.47C288.55,-306.47 288.55,-249.98 288.55,-249.98"/>
<polygon fill="white" stroke="white" stroke-width="0.8" points="292.05,-249.98 288.55,-239.98 285.05,-249.98 292.05,-249.98"/>
<text xml:space="preserve" text-anchor="middle" x="262.3" y="-281.07" font-family="Courier,monospace" font-size="12.00" fill="white">queries</text>
</g>
<!-- RedisCache -->
<g id="node6" class="node">
<title>RedisCache</title>
<polygon fill="black" stroke="white" points="464.35,-238.04 371.75,-238.04 367.75,-234.04 367.75,-202.04 460.35,-202.04 464.35,-206.04 464.35,-238.04"/>
<polyline fill="none" stroke="white" points="460.35,-234.04 367.75,-234.04"/>
<polyline fill="none" stroke="white" points="460.35,-234.04 460.35,-202.04"/>
<polyline fill="none" stroke="white" points="460.35,-234.04 464.35,-238.04"/>
<text xml:space="preserve" text-anchor="middle" x="416.05" y="-215.77" font-family="Courier,monospace" font-size="12.00" fill="white">RedisCache</text>
</g>
<!-- APIServer&#45;&gt;RedisCache -->
<g id="edge5" class="edge">
<title>APIServer&#45;&gt;RedisCache</title>
<path fill="none" stroke="white" stroke-width="0.8" d="M370.86,-325C374.15,-325 376.23,-325 376.23,-325 376.23,-325 376.23,-249.54 376.23,-249.54"/>
<polygon fill="white" stroke="white" stroke-width="0.8" points="379.73,-249.54 376.23,-239.54 372.73,-249.54 379.73,-249.54"/>
<text xml:space="preserve" text-anchor="middle" x="353.73" y="-292.8" font-family="Courier,monospace" font-size="12.00" fill="white">caches</text>
</g>
<!-- RabbitMQQueue -->
<g id="node7" class="node">
<title>RabbitMQQueue</title>
<polygon fill="black" stroke="white" points="783.53,-248.69 587.1,-248.69 536.57,-191.39 733,-191.39 783.53,-248.69"/>
<text xml:space="preserve" text-anchor="middle" x="660.05" y="-215.77" font-family="Courier,monospace" font-size="12.00" fill="white">RabbitMQQueue</text>
</g>
<!-- APIServer&#45;&gt;RabbitMQQueue -->
<g id="edge6" class="edge">
<title>APIServer&#45;&gt;RabbitMQQueue</title>
<path fill="none" stroke="white" stroke-width="0.8" d="M361.25,-306.38C361.25,-282.58 361.25,-244 361.25,-244 361.25,-244 571.11,-244 571.11,-244"/>
<polygon fill="white" stroke="white" stroke-width="0.8" points="571.11,-247.5 581.11,-244 571.11,-240.5 571.11,-247.5"/>
<text xml:space="preserve" text-anchor="middle" x="401.24" y="-246.85" font-family="Courier,monospace" font-size="12.00" fill="white">publishes</text>
</g>
<!-- PostgresDB -->
<g id="node9" class="node">
<title>PostgresDB</title>
<path fill="black" stroke="white" d="M282.35,-129.81C282.35,-131.79 260.7,-133.39 234.05,-133.39 207.4,-133.39 185.75,-131.79 185.75,-129.81 185.75,-129.81 185.75,-97.58 185.75,-97.58 185.75,-95.61 207.4,-94 234.05,-94 260.7,-94 282.35,-95.61 282.35,-97.58 282.35,-97.58 282.35,-129.81 282.35,-129.81"/>
<path fill="none" stroke="white" d="M282.35,-129.81C282.35,-127.84 260.7,-126.23 234.05,-126.23 207.4,-126.23 185.75,-127.84 185.75,-129.81"/>
<text xml:space="preserve" text-anchor="middle" x="234.05" y="-109.42" font-family="Courier,monospace" font-size="12.00" fill="white">PostgresDB</text>
</g>
<!-- MySQLDatabase&#45;&gt;PostgresDB -->
<g id="edge8" class="edge">
<title>MySQLDatabase&#45;&gt;PostgresDB</title>
<path fill="none" stroke="white" stroke-width="0.8" d="M234.05,-200.04C234.05,-200.04 234.05,-144.82 234.05,-144.82"/>
<polygon fill="white" stroke="white" stroke-width="0.8" points="237.55,-144.82 234.05,-134.82 230.55,-144.82 237.55,-144.82"/>
<text xml:space="preserve" text-anchor="middle" x="196.55" y="-175.28" font-family="Courier,monospace" font-size="12.00" fill="white">replicates</text>
</g>
<!-- MemcachedCache -->
<g id="node10" class="node">
<title>MemcachedCache</title>
<polygon fill="black" stroke="white" points="481.35,-131.7 358.75,-131.7 354.75,-127.7 354.75,-95.7 477.35,-95.7 481.35,-99.7 481.35,-131.7"/>
<polyline fill="none" stroke="white" points="477.35,-127.7 354.75,-127.7"/>
<polyline fill="none" stroke="white" points="477.35,-127.7 477.35,-95.7"/>
<polyline fill="none" stroke="white" points="477.35,-127.7 481.35,-131.7"/>
<text xml:space="preserve" text-anchor="middle" x="418.05" y="-109.42" font-family="Courier,monospace" font-size="12.00" fill="white">MemcachedCache</text>
</g>
<!-- RedisCache&#45;&gt;MemcachedCache -->
<g id="edge9" class="edge">
<title>RedisCache&#45;&gt;MemcachedCache</title>
<path fill="none" stroke="white" stroke-width="0.8" d="M416.05,-202C416.05,-202 416.05,-143.39 416.05,-143.39"/>
<polygon fill="white" stroke="white" stroke-width="0.8" points="419.55,-143.39 416.05,-133.39 412.55,-143.39 419.55,-143.39"/>
<text xml:space="preserve" text-anchor="middle" x="397.3" y="-175.55" font-family="Courier,monospace" font-size="12.00" fill="white">syncs</text>
</g>
<!-- BackgroundService -->
<g id="node8" class="node">
<title>BackgroundService</title>
<polygon fill="black" stroke="white" points="734.6,-131.7 585.5,-131.7 585.5,-127.7 581.5,-127.7 581.5,-123.7 585.5,-123.7 585.5,-103.7 581.5,-103.7 581.5,-99.7 585.5,-99.7 585.5,-95.7 734.6,-95.7 734.6,-131.7"/>
<polyline fill="none" stroke="white" points="585.5,-127.7 589.5,-127.7 589.5,-123.7 585.5,-123.7"/>
<polyline fill="none" stroke="white" points="585.5,-103.7 589.5,-103.7 589.5,-99.7 585.5,-99.7"/>
<text xml:space="preserve" text-anchor="middle" x="660.05" y="-109.42" font-family="Courier,monospace" font-size="12.00" fill="white">BackgroundService</text>
</g>
<!-- RabbitMQQueue&#45;&gt;BackgroundService -->
<g id="edge7" class="edge">
<title>RabbitMQQueue&#45;&gt;BackgroundService</title>
<path fill="none" stroke="white" stroke-width="0.8" d="M660.05,-190.98C660.05,-190.98 660.05,-143.23 660.05,-143.23"/>
<polygon fill="white" stroke="white" stroke-width="0.8" points="663.55,-143.23 660.05,-133.23 656.55,-143.23 663.55,-143.23"/>
<text xml:space="preserve" text-anchor="middle" x="630.05" y="-169.96" font-family="Courier,monospace" font-size="12.00" fill="white">triggers</text>
</g>
<!-- ExternalAPI -->
<g id="node11" class="node">
<title>ExternalAPI</title>
<polygon fill="black" stroke="white" points="627.1,-36 523,-36 523,-32 519,-32 519,-28 523,-28 523,-8 519,-8 519,-4 523,-4 523,0 627.1,0 627.1,-36"/>
<polyline fill="none" stroke="white" points="523,-32 527,-32 527,-28 523,-28"/>
<polyline fill="none" stroke="white" points="523,-8 527,-8 527,-4 523,-4"/>
<text xml:space="preserve" text-anchor="middle" x="575.05" y="-13.72" font-family="Courier,monospace" font-size="12.00" fill="white">ExternalAPI</text>
</g>
<!-- BackgroundService&#45;&gt;ExternalAPI -->
<g id="edge10" class="edge">
<title>BackgroundService&#45;&gt;ExternalAPI</title>
<path fill="none" stroke="white" stroke-width="0.8" d="M606.3,-95.25C606.3,-95.25 606.3,-47.61 606.3,-47.61"/>
<polygon fill="white" stroke="white" stroke-width="0.8" points="609.8,-47.61 606.3,-37.61 602.8,-47.61 609.8,-47.61"/>
<text xml:space="preserve" text-anchor="middle" x="568.8" y="-74.28" font-family="Courier,monospace" font-size="12.00" fill="white">integrates</text>
</g>
<!-- S3Storage -->
<g id="node12" class="node">
<title>S3Storage</title>
<polygon fill="black" stroke="white" points="788.6,-36 785.6,-40 764.6,-40 761.6,-36 699.5,-36 699.5,0 788.6,0 788.6,-36"/>
<text xml:space="preserve" text-anchor="middle" x="744.05" y="-13.72" font-family="Courier,monospace" font-size="12.00" fill="white">S3Storage</text>
</g>
<!-- BackgroundService&#45;&gt;S3Storage -->
<g id="edge11" class="edge">
<title>BackgroundService&#45;&gt;S3Storage</title>
<path fill="none" stroke="white" stroke-width="0.8" d="M717.05,-95.25C717.05,-95.25 717.05,-47.61 717.05,-47.61"/>
<polygon fill="white" stroke="white" stroke-width="0.8" points="720.55,-47.61 717.05,-37.61 713.55,-47.61 720.55,-47.61"/>
<text xml:space="preserve" text-anchor="middle" x="694.55" y="-74.28" font-family="Courier,monospace" font-size="12.00" fill="white">stores</text>
</g>
</g>
</svg>
