<?xml version="1.0" encoding="UTF-8" standalone="no"?>
<!DOCTYPE svg PUBLIC "-//W3C//DTD SVG 1.1//EN"
 "http://www.w3.org/Graphics/SVG/1.1/DTD/svg11.dtd">
<!-- Generated by graphviz version 13.1.2 (20250808.2320)
 -->
<!-- Pages: 1 -->
<svg width="7048pt" height="996pt"
 viewBox="0.00 0.00 7048.00 996.00" xmlns="http://www.w3.org/2000/svg" xmlns:xlink="http://www.w3.org/1999/xlink">
<g id="graph0" class="graph" transform="scale(4.16667 4.16667) rotate(0) translate(28.8 210.32)">
<polygon fill="black" stroke="none" points="-28.8,28.8 -28.8,-210.32 1662.62,-210.32 1662.62,28.8 -28.8,28.8"/>
<!-- DataSource -->
<g id="node1" class="node">
<title>DataSource</title>
<ellipse fill="#001100" stroke="#00ff00" cx="61.2" cy="-90.76" rx="61.2" ry="23.76"/>
<text xml:space="preserve" text-anchor="middle" x="61.2" y="-86.31" font-family="Helvetica,sans-Serif" font-size="11.00" fill="#00ff00">DataSource</text>
</g>
<!-- ETLPipeline -->
<g id="node2" class="node">
<title>ETLPipeline</title>
<ellipse fill="#001100" stroke="#00ff00" cx="256.13" cy="-90.76" rx="61.73" ry="23.76"/>
<text xml:space="preserve" text-anchor="middle" x="256.13" y="-86.31" font-family="Helvetica,sans-Serif" font-size="11.00" fill="#00ff00">ETLPipeline</text>
</g>
<!-- DataSource&#45;&gt;ETLPipeline -->
<g id="edge1" class="edge">
<title>DataSource&#45;&gt;ETLPipeline</title>
<path fill="none" stroke="#00ff00" stroke-width="1.2" d="M122.81,-90.76C137.48,-90.76 155.26,-90.76 182.69,-90.76"/>
<polygon fill="#00ff00" stroke="#00ff00" stroke-width="1.2" points="192.67,-90.76 182.67,-95.26 189.13,-90.86 182.67,-90.86 182.67,-90.76 182.67,-90.66 189.13,-90.66 182.67,-86.26 192.67,-90.76"/>
</g>
<!-- DataValidation -->
<g id="node3" class="node">
<title>DataValidation</title>
<ellipse fill="#001100" stroke="#00ff00" cx="459.55" cy="-90.76" rx="69.69" ry="23.76"/>
<text xml:space="preserve" text-anchor="middle" x="459.55" y="-86.31" font-family="Helvetica,sans-Serif" font-size="11.00" fill="#00ff00">DataValidation</text>
</g>
<!-- ETLPipeline&#45;&gt;DataValidation -->
<g id="edge2" class="edge">
<title>ETLPipeline&#45;&gt;DataValidation</title>
<path fill="none" stroke="#00ff00" stroke-width="1.2" d="M318.22,-90.76C333.12,-90.76 350.89,-90.76 378.19,-90.76"/>
<polygon fill="#00ff00" stroke="#00ff00" stroke-width="1.2" points="388.12,-90.76 378.12,-95.26 384.59,-90.86 378.12,-90.86 378.12,-90.76 378.12,-90.66 384.59,-90.66 378.12,-86.26 388.12,-90.76"/>
</g>
<!-- DataTransformation -->
<g id="node4" class="node">
<title>DataTransformation</title>
<ellipse fill="#001100" stroke="#00ff00" cx="689.48" cy="-90.76" rx="88.25" ry="23.76"/>
<text xml:space="preserve" text-anchor="middle" x="689.48" y="-86.31" font-family="Helvetica,sans-Serif" font-size="11.00" fill="#00ff00">DataTransformation</text>
</g>
<!-- DataValidation&#45;&gt;DataTransformation -->
<g id="edge3" class="edge">
<title>DataValidation&#45;&gt;DataTransformation</title>
<path fill="none" stroke="#00ff00" stroke-width="1.2" d="M529.73,-90.76C545.08,-90.76 563.11,-90.76 589.54,-90.76"/>
<polygon fill="#00ff00" stroke="#00ff00" stroke-width="1.2" points="599.49,-90.76 589.49,-95.26 595.96,-90.86 589.49,-90.86 589.49,-90.76 589.49,-90.66 595.96,-90.66 589.49,-86.26 599.49,-90.76"/>
</g>
<!-- DataWarehouse -->
<g id="node5" class="node">
<title>DataWarehouse</title>
<ellipse fill="#001100" stroke="#00ff00" cx="925.77" cy="-157.76" rx="76.05" ry="23.76"/>
<text xml:space="preserve" text-anchor="middle" x="925.77" y="-153.31" font-family="Helvetica,sans-Serif" font-size="11.00" fill="#00ff00">DataWarehouse</text>
</g>
<!-- DataTransformation&#45;&gt;DataWarehouse -->
<g id="edge4" class="edge">
<title>DataTransformation&#45;&gt;DataWarehouse</title>
<path fill="none" stroke="#00ff00" stroke-width="1.2" d="M719.23,-113.53C771.91,-153.3 794.21,-165.15 841.08,-164.66"/>
<polygon fill="#00ff00" stroke="#00ff00" stroke-width="1.2" points="851.04,-164.37 841.18,-169.16 847.51,-164.57 841.05,-164.76 841.05,-164.66 841.05,-164.56 847.5,-164.37 840.92,-160.16 851.04,-164.37"/>
</g>
<!-- DataLake -->
<g id="node6" class="node">
<title>DataLake</title>
<ellipse fill="#001100" stroke="#00ff00" cx="925.77" cy="-23.76" rx="53.25" ry="23.76"/>
<text xml:space="preserve" text-anchor="middle" x="925.77" y="-19.31" font-family="Helvetica,sans-Serif" font-size="11.00" fill="#00ff00">DataLake</text>
</g>
<!-- DataTransformation&#45;&gt;DataLake -->
<g id="edge5" class="edge">
<title>DataTransformation&#45;&gt;DataLake</title>
<path fill="none" stroke="#00ff00" stroke-width="1.2" d="M719.23,-67.99C779.22,-22.7 799.81,-13.62 862.13,-17.73"/>
<polygon fill="#00ff00" stroke="#00ff00" stroke-width="1.2" points="871.92,-18.47 861.61,-22.21 868.39,-18.3 861.94,-17.82 861.95,-17.72 861.96,-17.62 868.4,-18.1 862.29,-13.23 871.92,-18.47"/>
</g>
<!-- Analytics -->
<g id="node7" class="node">
<title>Analytics</title>
<ellipse fill="#001100" stroke="#00ff00" cx="1152.53" cy="-157.76" rx="50.59" ry="23.76"/>
<text xml:space="preserve" text-anchor="middle" x="1152.53" y="-153.31" font-family="Helvetica,sans-Serif" font-size="11.00" fill="#00ff00">Analytics</text>
</g>
<!-- DataWarehouse&#45;&gt;Analytics -->
<g id="edge6" class="edge">
<title>DataWarehouse&#45;&gt;Analytics</title>
<path fill="none" stroke="#00ff00" stroke-width="1.2" d="M999.86,-163.81C1046.93,-167.44 1071.3,-168.44 1093.22,-166.83"/>
<polygon fill="#00ff00" stroke="#00ff00" stroke-width="1.2" points="1103.11,-165.89 1093.58,-171.32 1099.6,-166.33 1093.17,-166.94 1093.16,-166.84 1093.15,-166.74 1099.58,-166.13 1092.73,-162.36 1103.11,-165.89"/>
</g>
<!-- MachineLearning -->
<g id="node8" class="node">
<title>MachineLearning</title>
<ellipse fill="#001100" stroke="#00ff00" cx="1152.53" cy="-23.76" rx="78.7" ry="23.76"/>
<text xml:space="preserve" text-anchor="middle" x="1152.53" y="-19.31" font-family="Helvetica,sans-Serif" font-size="11.00" fill="#00ff00">MachineLearning</text>
</g>
<!-- DataLake&#45;&gt;MachineLearning -->
<g id="edge7" class="edge">
<title>DataLake&#45;&gt;MachineLearning</title>
<path fill="none" stroke="#00ff00" stroke-width="1.2" d="M978.37,-19.41C1021.39,-15.92 1048.13,-14.11 1068.88,-13.95"/>
<polygon fill="#00ff00" stroke="#00ff00" stroke-width="1.2" points="1078.7,-14.03 1068.67,-18.45 1075.16,-14.1 1068.7,-14.05 1068.7,-13.95 1068.7,-13.85 1075.17,-13.9 1068.74,-9.45 1078.7,-14.03"/>
</g>
<!-- Dashboard -->
<g id="node9" class="node">
<title>Dashboard</title>
<ellipse fill="#001100" stroke="#00ff00" cx="1361.24" cy="-157.76" rx="58.02" ry="23.76"/>
<text xml:space="preserve" text-anchor="middle" x="1361.24" y="-153.31" font-family="Helvetica,sans-Serif" font-size="11.00" fill="#00ff00">Dashboard</text>
</g>
<!-- Analytics&#45;&gt;Dashboard -->
<g id="edge8" class="edge">
<title>Analytics&#45;&gt;Dashboard</title>
<path fill="none" stroke="#00ff00" stroke-width="1.2" d="M1203.33,-159.93C1247.3,-161.76 1272.64,-162.61 1292.46,-162.45"/>
<polygon fill="#00ff00" stroke="#00ff00" stroke-width="1.2" points="1302.43,-162.27 1292.52,-166.95 1298.9,-162.44 1292.44,-162.56 1292.44,-162.46 1292.43,-162.36 1298.89,-162.24 1292.35,-157.96 1302.43,-162.27"/>
</g>
<!-- Predictions -->
<g id="node10" class="node">
<title>Predictions</title>
<ellipse fill="#001100" stroke="#00ff00" cx="1361.24" cy="-23.76" rx="58.02" ry="23.76"/>
<text xml:space="preserve" text-anchor="middle" x="1361.24" y="-19.31" font-family="Helvetica,sans-Serif" font-size="11.00" fill="#00ff00">Predictions</text>
</g>
<!-- MachineLearning&#45;&gt;Predictions -->
<g id="edge9" class="edge">
<title>MachineLearning&#45;&gt;Predictions</title>
<path fill="none" stroke="#00ff00" stroke-width="1.2" d="M1230.98,-20.48C1259.01,-19.41 1277.62,-18.94 1292.96,-19.07"/>
<polygon fill="#00ff00" stroke="#00ff00" stroke-width="1.2" points="1302.69,-19.26 1292.6,-23.56 1299.15,-19.29 1292.69,-19.16 1292.69,-19.06 1292.69,-18.96 1299.15,-19.09 1292.78,-14.56 1302.69,-19.26"/>
</g>
<!-- BusinessUsers -->
<g id="node11" class="node">
<title>BusinessUsers</title>
<ellipse fill="#001100" stroke="#00ff00" cx="1562.54" cy="-90.76" rx="71.28" ry="23.76"/>
<text xml:space="preserve" text-anchor="middle" x="1562.54" y="-86.31" font-family="Helvetica,sans-Serif" font-size="11.00" fill="#00ff00">BusinessUsers</text>
</g>
<!-- Dashboard&#45;&gt;BusinessUsers -->
<g id="edge10" class="edge">
<title>Dashboard&#45;&gt;BusinessUsers</title>
<path fill="none" stroke="#00ff00" stroke-width="1.2" d="M1412.71,-146.43C1470.15,-133.63 1494.64,-127.14 1516.93,-116.72"/>
<polygon fill="#00ff00" stroke="#00ff00" stroke-width="1.2" points="1525.82,-112.27 1518.89,-120.77 1522.7,-113.94 1516.92,-116.83 1516.88,-116.74 1516.83,-116.65 1522.61,-113.76 1514.86,-112.72 1525.82,-112.27"/>
</g>
<!-- Predictions&#45;&gt;BusinessUsers -->
<g id="edge11" class="edge">
<title>Predictions&#45;&gt;BusinessUsers</title>
<path fill="none" stroke="#00ff00" stroke-width="1.2" d="M1412.71,-35.08C1470.15,-47.89 1494.64,-54.38 1516.93,-64.8"/>
<polygon fill="#00ff00" stroke="#00ff00" stroke-width="1.2" points="1525.82,-69.25 1514.86,-68.8 1522.61,-67.76 1516.83,-64.86 1516.88,-64.77 1516.92,-64.68 1522.7,-67.58 1518.89,-60.75 1525.82,-69.25"/>
</g>
</g>
</svg>
