<?xml version="1.0" encoding="UTF-8" standalone="no"?>
<!DOCTYPE svg PUBLIC "-//W3C//DTD SVG 1.1//EN"
 "http://www.w3.org/Graphics/SVG/1.1/DTD/svg11.dtd">
<!-- Generated by graphviz version 13.1.2 (20250808.2320)
 -->
<!-- Pages: 1 -->
<svg width="2126pt" height="2228pt"
 viewBox="0.00 0.00 2126.00 2228.00" xmlns="http://www.w3.org/2000/svg" xmlns:xlink="http://www.w3.org/1999/xlink">
<g id="graph0" class="graph" transform="scale(4.16667 4.16667) rotate(0) translate(14.4 520.4)">
<polygon fill="white" stroke="none" points="-14.4,14.4 -14.4,-520.4 495.75,-520.4 495.75,14.4 -14.4,14.4"/>
<!-- User -->
<g id="node1" class="node">
<title>User</title>
<polygon fill="white" stroke="black" points="255.05,-506 201.05,-506 201.05,-470 255.05,-470 255.05,-506"/>
<text xml:space="preserve" text-anchor="middle" x="228.05" y="-483.73" font-family="Courier,monospace" font-size="12.00">User</text>
</g>
<!-- MobileApp -->
<g id="node2" class="node">
<title>MobileApp</title>
<polygon fill="white" stroke="black" points="197.6,-412 108.5,-412 108.5,-376 197.6,-376 197.6,-412"/>
<text xml:space="preserve" text-anchor="middle" x="153.05" y="-389.73" font-family="Courier,monospace" font-size="12.00">MobileApp</text>
</g>
<!-- User&#45;&gt;MobileApp -->
<g id="edge1" class="edge">
<title>User&#45;&gt;MobileApp</title>
<path fill="none" stroke="black" stroke-width="0.8" d="M219.05,-469.59C219.05,-439.96 219.05,-385 219.05,-385 219.05,-385 209.01,-385 209.01,-385"/>
<polygon fill="black" stroke="black" stroke-width="0.8" points="209.01,-381.5 199.01,-385 209.01,-388.5 209.01,-381.5"/>
</g>
<!-- WebApp -->
<g id="node3" class="node">
<title>WebApp</title>
<polygon fill="white" stroke="black" points="336.35,-412 269.75,-412 269.75,-376 336.35,-376 336.35,-412"/>
<text xml:space="preserve" text-anchor="middle" x="303.05" y="-389.73" font-family="Courier,monospace" font-size="12.00">WebApp</text>
</g>
<!-- User&#45;&gt;WebApp -->
<g id="edge2" class="edge">
<title>User&#45;&gt;WebApp</title>
<path fill="none" stroke="black" stroke-width="0.8" d="M237.05,-469.56C237.05,-444.56 237.05,-403 237.05,-403 237.05,-403 258.07,-403 258.07,-403"/>
<polygon fill="black" stroke="black" stroke-width="0.8" points="258.07,-406.5 268.07,-403 258.07,-399.5 258.07,-406.5"/>
</g>
<!-- APIGateway -->
<g id="node4" class="node">
<title>APIGateway</title>
<polygon fill="white" stroke="black" points="276.35,-318 179.75,-318 179.75,-282 276.35,-282 276.35,-318"/>
<text xml:space="preserve" text-anchor="middle" x="228.05" y="-295.73" font-family="Courier,monospace" font-size="12.00">APIGateway</text>
</g>
<!-- MobileApp&#45;&gt;APIGateway -->
<g id="edge3" class="edge">
<title>MobileApp&#45;&gt;APIGateway</title>
<path fill="none" stroke="black" stroke-width="0.8" d="M188.68,-375.88C188.68,-375.88 188.68,-329.6 188.68,-329.6"/>
<polygon fill="black" stroke="black" stroke-width="0.8" points="192.18,-329.6 188.68,-319.6 185.18,-329.6 192.18,-329.6"/>
</g>
<!-- WebApp&#45;&gt;APIGateway -->
<g id="edge4" class="edge">
<title>WebApp&#45;&gt;APIGateway</title>
<path fill="none" stroke="black" stroke-width="0.8" d="M269.48,-394C265.27,-394 262.4,-394 262.4,-394 262.4,-394 262.4,-329.33 262.4,-329.33"/>
<polygon fill="black" stroke="black" stroke-width="0.8" points="265.9,-329.33 262.4,-319.33 258.9,-329.34 265.9,-329.33"/>
</g>
<!-- AuthService -->
<g id="node5" class="node">
<title>AuthService</title>
<polygon fill="white" stroke="black" points="104.1,-224 0,-224 0,-188 104.1,-188 104.1,-224"/>
<text xml:space="preserve" text-anchor="middle" x="52.05" y="-201.72" font-family="Courier,monospace" font-size="12.00">AuthService</text>
</g>
<!-- APIGateway&#45;&gt;AuthService -->
<g id="edge5" class="edge">
<title>APIGateway&#45;&gt;AuthService</title>
<path fill="none" stroke="black" stroke-width="0.8" d="M179.49,-300C127.4,-300 52.05,-300 52.05,-300 52.05,-300 52.05,-235.33 52.05,-235.33"/>
<polygon fill="black" stroke="black" stroke-width="0.8" points="55.55,-235.33 52.05,-225.33 48.55,-235.34 55.55,-235.33"/>
</g>
<!-- UserService -->
<g id="node6" class="node">
<title>UserService</title>
<polygon fill="white" stroke="black" points="280.1,-224 176,-224 176,-188 280.1,-188 280.1,-224"/>
<text xml:space="preserve" text-anchor="middle" x="228.05" y="-201.72" font-family="Courier,monospace" font-size="12.00">UserService</text>
</g>
<!-- APIGateway&#45;&gt;UserService -->
<g id="edge6" class="edge">
<title>APIGateway&#45;&gt;UserService</title>
<path fill="none" stroke="black" stroke-width="0.8" d="M228.05,-281.88C228.05,-281.88 228.05,-235.6 228.05,-235.6"/>
<polygon fill="black" stroke="black" stroke-width="0.8" points="231.55,-235.6 228.05,-225.6 224.55,-235.6 231.55,-235.6"/>
</g>
<!-- PaymentService -->
<g id="node7" class="node">
<title>PaymentService</title>
<polygon fill="white" stroke="black" points="480.35,-224 353.75,-224 353.75,-188 480.35,-188 480.35,-224"/>
<text xml:space="preserve" text-anchor="middle" x="417.05" y="-201.72" font-family="Courier,monospace" font-size="12.00">PaymentService</text>
</g>
<!-- APIGateway&#45;&gt;PaymentService -->
<g id="edge7" class="edge">
<title>APIGateway&#45;&gt;PaymentService</title>
<path fill="none" stroke="black" stroke-width="0.8" d="M276.72,-300C332.72,-300 417.05,-300 417.05,-300 417.05,-300 417.05,-235.33 417.05,-235.33"/>
<polygon fill="black" stroke="black" stroke-width="0.8" points="420.55,-235.33 417.05,-225.33 413.55,-235.34 420.55,-235.33"/>
</g>
<!-- UserDatabase -->
<g id="node8" class="node">
<title>UserDatabase</title>
<polygon fill="white" stroke="black" points="282.85,-130 171.25,-130 171.25,-94 282.85,-94 282.85,-130"/>
<text xml:space="preserve" text-anchor="middle" x="227.05" y="-107.72" font-family="Courier,monospace" font-size="12.00">UserDatabase</text>
</g>
<!-- UserService&#45;&gt;UserDatabase -->
<g id="edge8" class="edge">
<title>UserService&#45;&gt;UserDatabase</title>
<path fill="none" stroke="black" stroke-width="0.8" d="M228.05,-187.88C228.05,-187.88 228.05,-141.6 228.05,-141.6"/>
<polygon fill="black" stroke="black" stroke-width="0.8" points="231.55,-141.6 228.05,-131.6 224.55,-141.6 231.55,-141.6"/>
</g>
<!-- PaymentGateway -->
<g id="node9" class="node">
<title>PaymentGateway</title>
<polygon fill="white" stroke="black" points="481.35,-130 354.75,-130 354.75,-94 481.35,-94 481.35,-130"/>
<text xml:space="preserve" text-anchor="middle" x="418.05" y="-107.72" font-family="Courier,monospace" font-size="12.00">PaymentGateway</text>
</g>
<!-- PaymentService&#45;&gt;PaymentGateway -->
<g id="edge9" class="edge">
<title>PaymentService&#45;&gt;PaymentGateway</title>
<path fill="none" stroke="black" stroke-width="0.8" d="M417.55,-187.88C417.55,-187.88 417.55,-141.6 417.55,-141.6"/>
<polygon fill="black" stroke="black" stroke-width="0.8" points="421.05,-141.6 417.55,-131.6 414.05,-141.6 421.05,-141.6"/>
</g>
<!-- BankAPI -->
<g id="node10" class="node">
<title>BankAPI</title>
<polygon fill="white" stroke="black" points="455.1,-36 381,-36 381,0 455.1,0 455.1,-36"/>
<text xml:space="preserve" text-anchor="middle" x="418.05" y="-13.72" font-family="Courier,monospace" font-size="12.00">BankAPI</text>
</g>
<!-- PaymentGateway&#45;&gt;BankAPI -->
<g id="edge10" class="edge">
<title>PaymentGateway&#45;&gt;BankAPI</title>
<path fill="none" stroke="black" stroke-width="0.8" d="M418.05,-93.88C418.05,-93.88 418.05,-47.6 418.05,-47.6"/>
<polygon fill="black" stroke="black" stroke-width="0.8" points="421.55,-47.6 418.05,-37.6 414.55,-47.6 421.55,-47.6"/>
</g>
</g>
</svg>
