<?xml version="1.0" encoding="UTF-8" standalone="no"?>
<!DOCTYPE svg PUBLIC "-//W3C//DTD SVG 1.1//EN"
 "http://www.w3.org/Graphics/SVG/1.1/DTD/svg11.dtd">
<!-- Generated by graphviz version 13.1.2 (20250808.2320)
 -->
<!-- Pages: 1 -->
<svg width="2331pt" height="2742pt"
 viewBox="0.00 0.00 2331.00 2742.00" xmlns="http://www.w3.org/2000/svg" xmlns:xlink="http://www.w3.org/1999/xlink">
<g id="graph0" class="graph" transform="scale(4.16667 4.16667) rotate(0) translate(14.4 643.61)">
<polygon fill="white" stroke="none" points="-14.4,14.4 -14.4,-643.61 545.15,-643.61 545.15,14.4 -14.4,14.4"/>
<!-- User -->
<g id="node1" class="node">
<title>User</title>
<ellipse fill="white" stroke="black" cx="228.05" cy="-608.95" rx="36.49" ry="20.26"/>
<text xml:space="preserve" text-anchor="middle" x="228.05" y="-604.68" font-family="Courier,monospace" font-size="12.00">User</text>
</g>
<!-- MobileApp -->
<g id="node2" class="node">
<title>MobileApp</title>
<polygon fill="white" stroke="black" points="197.6,-530.69 108.5,-530.69 108.5,-494.69 197.6,-494.69 197.6,-530.69"/>
<text xml:space="preserve" text-anchor="middle" x="153.05" y="-508.42" font-family="Courier,monospace" font-size="12.00">MobileApp</text>
</g>
<!-- User&#45;&gt;MobileApp -->
<g id="edge1" class="edge">
<title>User&#45;&gt;MobileApp</title>
<path fill="none" stroke="black" stroke-width="0.8" d="M219.91,-588.99C219.91,-562.49 219.91,-519 219.91,-519 219.91,-519 209.23,-519 209.23,-519"/>
<polygon fill="black" stroke="black" stroke-width="0.8" points="209.23,-515.5 199.23,-519 209.23,-522.5 209.23,-515.5"/>
</g>
<!-- WebApp -->
<g id="node3" class="node">
<title>WebApp</title>
<polygon fill="white" stroke="black" points="336.35,-530.69 269.75,-530.69 269.75,-494.69 336.35,-494.69 336.35,-530.69"/>
<text xml:space="preserve" text-anchor="middle" x="303.05" y="-508.42" font-family="Courier,monospace" font-size="12.00">WebApp</text>
</g>
<!-- User&#45;&gt;WebApp -->
<g id="edge2" class="edge">
<title>User&#45;&gt;WebApp</title>
<path fill="none" stroke="black" stroke-width="0.8" d="M242.22,-590.25C242.22,-560.82 242.22,-507 242.22,-507 242.22,-507 258.22,-507 258.22,-507"/>
<polygon fill="black" stroke="black" stroke-width="0.8" points="258.22,-510.5 268.22,-507 258.22,-503.5 258.22,-510.5"/>
</g>
<!-- APIServer -->
<g id="node4" class="node">
<title>APIServer</title>
<polygon fill="white" stroke="black" points="272.6,-436.69 183.5,-436.69 183.5,-432.69 179.5,-432.69 179.5,-428.69 183.5,-428.69 183.5,-408.69 179.5,-408.69 179.5,-404.69 183.5,-404.69 183.5,-400.69 272.6,-400.69 272.6,-436.69"/>
<polyline fill="none" stroke="black" points="183.5,-432.69 187.5,-432.69 187.5,-428.69 183.5,-428.69"/>
<polyline fill="none" stroke="black" points="183.5,-408.69 187.5,-408.69 187.5,-404.69 183.5,-404.69"/>
<text xml:space="preserve" text-anchor="middle" x="228.05" y="-414.42" font-family="Courier,monospace" font-size="12.00">APIServer</text>
</g>
<!-- MobileApp&#45;&gt;APIServer -->
<g id="edge3" class="edge">
<title>MobileApp&#45;&gt;APIServer</title>
<path fill="none" stroke="black" stroke-width="0.8" d="M190.55,-494.57C190.55,-494.57 190.55,-448.29 190.55,-448.29"/>
<polygon fill="black" stroke="black" stroke-width="0.8" points="194.05,-448.29 190.55,-438.29 187.05,-448.29 194.05,-448.29"/>
</g>
<!-- WebApp&#45;&gt;APIServer -->
<g id="edge4" class="edge">
<title>WebApp&#45;&gt;APIServer</title>
<path fill="none" stroke="black" stroke-width="0.8" d="M276.35,-494.52C276.35,-468.84 276.35,-425 276.35,-425 276.35,-425 276,-425 276,-425"/>
<polygon fill="black" stroke="black" stroke-width="0.8" points="284.09,-421.5 274.09,-425 284.09,-428.5 284.09,-421.5"/>
</g>
<!-- AuthService -->
<g id="node5" class="node">
<title>AuthService</title>
<polygon fill="white" stroke="black" points="104.1,-342.69 0,-342.69 0,-338.69 -4,-338.69 -4,-334.69 0,-334.69 0,-314.69 -4,-314.69 -4,-310.69 0,-310.69 0,-306.69 104.1,-306.69 104.1,-342.69"/>
<polyline fill="none" stroke="black" points="0,-338.69 4,-338.69 4,-334.69 0,-334.69"/>
<polyline fill="none" stroke="black" points="0,-314.69 4,-314.69 4,-310.69 0,-310.69"/>
<text xml:space="preserve" text-anchor="middle" x="52.05" y="-320.42" font-family="Courier,monospace" font-size="12.00">AuthService</text>
</g>
<!-- APIServer&#45;&gt;AuthService -->
<g id="edge5" class="edge">
<title>APIServer&#45;&gt;AuthService</title>
<path fill="none" stroke="black" stroke-width="0.8" d="M183.18,-419C131.04,-419 52.05,-419 52.05,-419 52.05,-419 52.05,-354.09 52.05,-354.09"/>
<polygon fill="black" stroke="black" stroke-width="0.8" points="55.55,-354.09 52.05,-344.09 48.55,-354.09 55.55,-354.09"/>
</g>
<!-- UserService -->
<g id="node6" class="node">
<title>UserService</title>
<polygon fill="white" stroke="black" points="280.1,-342.69 176,-342.69 176,-338.69 172,-338.69 172,-334.69 176,-334.69 176,-314.69 172,-314.69 172,-310.69 176,-310.69 176,-306.69 280.1,-306.69 280.1,-342.69"/>
<polyline fill="none" stroke="black" points="176,-338.69 180,-338.69 180,-334.69 176,-334.69"/>
<polyline fill="none" stroke="black" points="176,-314.69 180,-314.69 180,-310.69 176,-310.69"/>
<text xml:space="preserve" text-anchor="middle" x="228.05" y="-320.42" font-family="Courier,monospace" font-size="12.00">UserService</text>
</g>
<!-- APIServer&#45;&gt;UserService -->
<g id="edge6" class="edge">
<title>APIServer&#45;&gt;UserService</title>
<path fill="none" stroke="black" stroke-width="0.8" d="M228.05,-400.57C228.05,-400.57 228.05,-354.29 228.05,-354.29"/>
<polygon fill="black" stroke="black" stroke-width="0.8" points="231.55,-354.29 228.05,-344.29 224.55,-354.29 231.55,-354.29"/>
</g>
<!-- PaymentService -->
<g id="node7" class="node">
<title>PaymentService</title>
<polygon fill="white" stroke="black" points="478.35,-342.69 351.75,-342.69 351.75,-338.69 347.75,-338.69 347.75,-334.69 351.75,-334.69 351.75,-314.69 347.75,-314.69 347.75,-310.69 351.75,-310.69 351.75,-306.69 478.35,-306.69 478.35,-342.69"/>
<polyline fill="none" stroke="black" points="351.75,-338.69 355.75,-338.69 355.75,-334.69 351.75,-334.69"/>
<polyline fill="none" stroke="black" points="351.75,-314.69 355.75,-314.69 355.75,-310.69 351.75,-310.69"/>
<text xml:space="preserve" text-anchor="middle" x="415.05" y="-320.42" font-family="Courier,monospace" font-size="12.00">PaymentService</text>
</g>
<!-- APIServer&#45;&gt;PaymentService -->
<g id="edge7" class="edge">
<title>APIServer&#45;&gt;PaymentService</title>
<path fill="none" stroke="black" stroke-width="0.8" d="M272.84,-413C328.16,-413 415.05,-413 415.05,-413 415.05,-413 415.05,-354.2 415.05,-354.2"/>
<polygon fill="black" stroke="black" stroke-width="0.8" points="418.55,-354.2 415.05,-344.2 411.55,-354.2 418.55,-354.2"/>
</g>
<!-- PostgresDB -->
<g id="node8" class="node">
<title>PostgresDB</title>
<path fill="white" stroke="black" d="M276.35,-245.11C276.35,-247.09 254.7,-248.69 228.05,-248.69 201.4,-248.69 179.75,-247.09 179.75,-245.11 179.75,-245.11 179.75,-212.88 179.75,-212.88 179.75,-210.91 201.4,-209.3 228.05,-209.3 254.7,-209.3 276.35,-210.91 276.35,-212.88 276.35,-212.88 276.35,-245.11 276.35,-245.11"/>
<path fill="none" stroke="black" d="M276.35,-245.11C276.35,-243.14 254.7,-241.53 228.05,-241.53 201.4,-241.53 179.75,-243.14 179.75,-245.11"/>
<text xml:space="preserve" text-anchor="middle" x="228.05" y="-224.72" font-family="Courier,monospace" font-size="12.00">PostgresDB</text>
</g>
<!-- UserService&#45;&gt;PostgresDB -->
<g id="edge8" class="edge">
<title>UserService&#45;&gt;PostgresDB</title>
<path fill="none" stroke="black" stroke-width="0.8" d="M228.05,-306.24C228.05,-306.24 228.05,-260.25 228.05,-260.25"/>
<polygon fill="black" stroke="black" stroke-width="0.8" points="231.55,-260.25 228.05,-250.25 224.55,-260.25 231.55,-260.25"/>
</g>
<!-- RedisCache -->
<g id="node9" class="node">
<title>RedisCache</title>
<polygon fill="white" stroke="black" points="463.35,-247 370.75,-247 366.75,-243 366.75,-211 459.35,-211 463.35,-215 463.35,-247"/>
<polyline fill="none" stroke="black" points="459.35,-243 366.75,-243"/>
<polyline fill="none" stroke="black" points="459.35,-243 459.35,-211"/>
<polyline fill="none" stroke="black" points="459.35,-243 463.35,-247"/>
<text xml:space="preserve" text-anchor="middle" x="415.05" y="-224.72" font-family="Courier,monospace" font-size="12.00">RedisCache</text>
</g>
<!-- PaymentService&#45;&gt;RedisCache -->
<g id="edge9" class="edge">
<title>PaymentService&#45;&gt;RedisCache</title>
<path fill="none" stroke="black" stroke-width="0.8" d="M415.05,-306.24C415.05,-306.24 415.05,-258.6 415.05,-258.6"/>
<polygon fill="black" stroke="black" stroke-width="0.8" points="418.55,-258.6 415.05,-248.6 411.55,-258.6 418.55,-258.6"/>
</g>
<!-- PaymentQueue -->
<g id="node10" class="node">
<title>PaymentQueue</title>
<polygon fill="white" stroke="black" points="530.75,-151.3 346.7,-151.3 299.35,-94 483.4,-94 530.75,-151.3"/>
<text xml:space="preserve" text-anchor="middle" x="415.05" y="-118.38" font-family="Courier,monospace" font-size="12.00">PaymentQueue</text>
</g>
<!-- RedisCache&#45;&gt;PaymentQueue -->
<g id="edge10" class="edge">
<title>RedisCache&#45;&gt;PaymentQueue</title>
<path fill="none" stroke="black" stroke-width="0.8" d="M415.05,-210.96C415.05,-210.96 415.05,-162.84 415.05,-162.84"/>
<polygon fill="black" stroke="black" stroke-width="0.8" points="418.55,-162.84 415.05,-152.84 411.55,-162.84 418.55,-162.84"/>
</g>
<!-- BankAPI -->
<g id="node11" class="node">
<title>BankAPI</title>
<polygon fill="white" stroke="black" points="452.1,-36 378,-36 378,-32 374,-32 374,-28 378,-28 378,-8 374,-8 374,-4 378,-4 378,0 452.1,0 452.1,-36"/>
<polyline fill="none" stroke="black" points="378,-32 382,-32 382,-28 378,-28"/>
<polyline fill="none" stroke="black" points="378,-8 382,-8 382,-4 378,-4"/>
<text xml:space="preserve" text-anchor="middle" x="415.05" y="-13.72" font-family="Courier,monospace" font-size="12.00">BankAPI</text>
</g>
<!-- PaymentQueue&#45;&gt;BankAPI -->
<g id="edge11" class="edge">
<title>PaymentQueue&#45;&gt;BankAPI</title>
<path fill="none" stroke="black" stroke-width="0.8" d="M415.05,-93.78C415.05,-93.78 415.05,-47.46 415.05,-47.46"/>
<polygon fill="black" stroke="black" stroke-width="0.8" points="418.55,-47.46 415.05,-37.46 411.55,-47.46 418.55,-47.46"/>
</g>
</g>
</svg>
