<?xml version="1.0" encoding="UTF-8" standalone="no"?>
<!DOCTYPE svg PUBLIC "-//W3C//DTD SVG 1.1//EN"
 "http://www.w3.org/Graphics/SVG/1.1/DTD/svg11.dtd">
<!-- Generated by graphviz version 13.1.2 (20250808.2320)
 -->
<!-- Pages: 1 -->
<svg width="1389pt" height="3012pt"
 viewBox="0.00 0.00 1389.00 3012.00" xmlns="http://www.w3.org/2000/svg" xmlns:xlink="http://www.w3.org/1999/xlink">
<g id="graph0" class="graph" transform="scale(4.16667 4.16667) rotate(0) translate(14.4 708.4)">
<polygon fill="black" stroke="none" points="-14.4,14.4 -14.4,-708.4 319,-708.4 319,14.4 -14.4,14.4"/>
<!-- DataSource -->
<g id="node1" class="node">
<title>DataSource</title>
<polygon fill="#001100" stroke="#00ff00" points="193.85,-694 97.25,-694 97.25,-658 193.85,-658 193.85,-694"/>
<text xml:space="preserve" text-anchor="middle" x="145.55" y="-671.73" font-family="Courier,monospace" font-size="12.00" fill="#00ff00">DataSource</text>
</g>
<!-- ETLPipeline -->
<g id="node2" class="node">
<title>ETLPipeline</title>
<polygon fill="#001100" stroke="#00ff00" points="197.6,-600 93.5,-600 93.5,-564 197.6,-564 197.6,-600"/>
<text xml:space="preserve" text-anchor="middle" x="145.55" y="-577.73" font-family="Courier,monospace" font-size="12.00" fill="#00ff00">ETLPipeline</text>
</g>
<!-- DataSource&#45;&gt;ETLPipeline -->
<g id="edge1" class="edge">
<title>DataSource&#45;&gt;ETLPipeline</title>
<path fill="none" stroke="#00ff00" stroke-width="0.8" d="M145.55,-657.88C145.55,-657.88 145.55,-611.6 145.55,-611.6"/>
<polygon fill="#00ff00" stroke="#00ff00" stroke-width="0.8" points="149.05,-611.6 145.55,-601.6 142.05,-611.6 149.05,-611.6"/>
</g>
<!-- DataValidation -->
<g id="node3" class="node">
<title>DataValidation</title>
<polygon fill="#001100" stroke="#00ff00" points="208.85,-506 82.25,-506 82.25,-470 208.85,-470 208.85,-506"/>
<text xml:space="preserve" text-anchor="middle" x="145.55" y="-483.73" font-family="Courier,monospace" font-size="12.00" fill="#00ff00">DataValidation</text>
</g>
<!-- ETLPipeline&#45;&gt;DataValidation -->
<g id="edge2" class="edge">
<title>ETLPipeline&#45;&gt;DataValidation</title>
<path fill="none" stroke="#00ff00" stroke-width="0.8" d="M145.55,-563.88C145.55,-563.88 145.55,-517.6 145.55,-517.6"/>
<polygon fill="#00ff00" stroke="#00ff00" stroke-width="0.8" points="149.05,-517.6 145.55,-507.6 142.05,-517.6 149.05,-517.6"/>
</g>
<!-- DataTransformation -->
<g id="node4" class="node">
<title>DataTransformation</title>
<polygon fill="#001100" stroke="#00ff00" points="223.85,-412 67.25,-412 67.25,-376 223.85,-376 223.85,-412"/>
<text xml:space="preserve" text-anchor="middle" x="145.55" y="-389.73" font-family="Courier,monospace" font-size="12.00" fill="#00ff00">DataTransformation</text>
</g>
<!-- DataValidation&#45;&gt;DataTransformation -->
<g id="edge3" class="edge">
<title>DataValidation&#45;&gt;DataTransformation</title>
<path fill="none" stroke="#00ff00" stroke-width="0.8" d="M145.55,-469.88C145.55,-469.88 145.55,-423.6 145.55,-423.6"/>
<polygon fill="#00ff00" stroke="#00ff00" stroke-width="0.8" points="149.05,-423.6 145.55,-413.6 142.05,-423.6 149.05,-423.6"/>
</g>
<!-- DataWarehouse -->
<g id="node5" class="node">
<title>DataWarehouse</title>
<polygon fill="#001100" stroke="#00ff00" points="119.1,-318 0,-318 0,-282 119.1,-282 119.1,-318"/>
<text xml:space="preserve" text-anchor="middle" x="59.55" y="-295.73" font-family="Courier,monospace" font-size="12.00" fill="#00ff00">DataWarehouse</text>
</g>
<!-- DataTransformation&#45;&gt;DataWarehouse -->
<g id="edge4" class="edge">
<title>DataTransformation&#45;&gt;DataWarehouse</title>
<path fill="none" stroke="#00ff00" stroke-width="0.8" d="M93.17,-375.88C93.17,-375.88 93.17,-329.6 93.17,-329.6"/>
<polygon fill="#00ff00" stroke="#00ff00" stroke-width="0.8" points="96.68,-329.6 93.18,-319.6 89.68,-329.6 96.68,-329.6"/>
</g>
<!-- DataLake -->
<g id="node6" class="node">
<title>DataLake</title>
<polygon fill="#001100" stroke="#00ff00" points="275.35,-318 193.75,-318 193.75,-282 275.35,-282 275.35,-318"/>
<text xml:space="preserve" text-anchor="middle" x="234.55" y="-295.73" font-family="Courier,monospace" font-size="12.00" fill="#00ff00">DataLake</text>
</g>
<!-- DataTransformation&#45;&gt;DataLake -->
<g id="edge5" class="edge">
<title>DataTransformation&#45;&gt;DataLake</title>
<path fill="none" stroke="#00ff00" stroke-width="0.8" d="M208.8,-375.88C208.8,-375.88 208.8,-329.6 208.8,-329.6"/>
<polygon fill="#00ff00" stroke="#00ff00" stroke-width="0.8" points="212.3,-329.6 208.8,-319.6 205.3,-329.6 212.3,-329.6"/>
</g>
<!-- Analytics -->
<g id="node7" class="node">
<title>Analytics</title>
<polygon fill="#001100" stroke="#00ff00" points="98.1,-224 9,-224 9,-188 98.1,-188 98.1,-224"/>
<text xml:space="preserve" text-anchor="middle" x="53.55" y="-201.72" font-family="Courier,monospace" font-size="12.00" fill="#00ff00">Analytics</text>
</g>
<!-- DataWarehouse&#45;&gt;Analytics -->
<g id="edge6" class="edge">
<title>DataWarehouse&#45;&gt;Analytics</title>
<path fill="none" stroke="#00ff00" stroke-width="0.8" d="M53.55,-281.88C53.55,-281.88 53.55,-235.6 53.55,-235.6"/>
<polygon fill="#00ff00" stroke="#00ff00" stroke-width="0.8" points="57.05,-235.6 53.55,-225.6 50.05,-235.6 57.05,-235.6"/>
</g>
<!-- MachineLearning -->
<g id="node8" class="node">
<title>MachineLearning</title>
<polygon fill="#001100" stroke="#00ff00" points="304.6,-224 170.5,-224 170.5,-188 304.6,-188 304.6,-224"/>
<text xml:space="preserve" text-anchor="middle" x="237.55" y="-201.72" font-family="Courier,monospace" font-size="12.00" fill="#00ff00">MachineLearning</text>
</g>
<!-- DataLake&#45;&gt;MachineLearning -->
<g id="edge7" class="edge">
<title>DataLake&#45;&gt;MachineLearning</title>
<path fill="none" stroke="#00ff00" stroke-width="0.8" d="M234.55,-281.88C234.55,-281.88 234.55,-235.6 234.55,-235.6"/>
<polygon fill="#00ff00" stroke="#00ff00" stroke-width="0.8" points="238.05,-235.6 234.55,-225.6 231.05,-235.6 238.05,-235.6"/>
</g>
<!-- Dashboard -->
<g id="node9" class="node">
<title>Dashboard</title>
<polygon fill="#001100" stroke="#00ff00" points="105.1,-130 16,-130 16,-94 105.1,-94 105.1,-130"/>
<text xml:space="preserve" text-anchor="middle" x="60.55" y="-107.72" font-family="Courier,monospace" font-size="12.00" fill="#00ff00">Dashboard</text>
</g>
<!-- Analytics&#45;&gt;Dashboard -->
<g id="edge8" class="edge">
<title>Analytics&#45;&gt;Dashboard</title>
<path fill="none" stroke="#00ff00" stroke-width="0.8" d="M57.05,-187.88C57.05,-187.88 57.05,-141.6 57.05,-141.6"/>
<polygon fill="#00ff00" stroke="#00ff00" stroke-width="0.8" points="60.55,-141.6 57.05,-131.6 53.55,-141.6 60.55,-141.6"/>
</g>
<!-- Predictions -->
<g id="node10" class="node">
<title>Predictions</title>
<polygon fill="#001100" stroke="#00ff00" points="285.6,-130 181.5,-130 181.5,-94 285.6,-94 285.6,-130"/>
<text xml:space="preserve" text-anchor="middle" x="233.55" y="-107.72" font-family="Courier,monospace" font-size="12.00" fill="#00ff00">Predictions</text>
</g>
<!-- MachineLearning&#45;&gt;Predictions -->
<g id="edge9" class="edge">
<title>MachineLearning&#45;&gt;Predictions</title>
<path fill="none" stroke="#00ff00" stroke-width="0.8" d="M233.55,-187.88C233.55,-187.88 233.55,-141.6 233.55,-141.6"/>
<polygon fill="#00ff00" stroke="#00ff00" stroke-width="0.8" points="237.05,-141.6 233.55,-131.6 230.05,-141.6 237.05,-141.6"/>
</g>
<!-- BusinessUsers -->
<g id="node11" class="node">
<title>BusinessUsers</title>
<polygon fill="#001100" stroke="#00ff00" points="204.1,-36 85,-36 85,0 204.1,0 204.1,-36"/>
<text xml:space="preserve" text-anchor="middle" x="144.55" y="-13.72" font-family="Courier,monospace" font-size="12.00" fill="#00ff00">BusinessUsers</text>
</g>
<!-- Dashboard&#45;&gt;BusinessUsers -->
<g id="edge10" class="edge">
<title>Dashboard&#45;&gt;BusinessUsers</title>
<path fill="none" stroke="#00ff00" stroke-width="0.8" d="M95.05,-93.88C95.05,-93.88 95.05,-47.6 95.05,-47.6"/>
<polygon fill="#00ff00" stroke="#00ff00" stroke-width="0.8" points="98.55,-47.6 95.05,-37.6 91.55,-47.6 98.55,-47.6"/>
</g>
<!-- Predictions&#45;&gt;BusinessUsers -->
<g id="edge11" class="edge">
<title>Predictions&#45;&gt;BusinessUsers</title>
<path fill="none" stroke="#00ff00" stroke-width="0.8" d="M192.8,-93.88C192.8,-93.88 192.8,-47.6 192.8,-47.6"/>
<polygon fill="#00ff00" stroke="#00ff00" stroke-width="0.8" points="196.3,-47.6 192.8,-37.6 189.3,-47.6 196.3,-47.6"/>
</g>
</g>
</svg>
