<?xml version="1.0" encoding="UTF-8" standalone="no"?>
<!DOCTYPE svg PUBLIC "-//W3C//DTD SVG 1.1//EN"
 "http://www.w3.org/Graphics/SVG/1.1/DTD/svg11.dtd">
<!-- Generated by graphviz version 13.1.2 (20250808.2320)
 -->
<!-- Pages: 1 -->
<svg width="1396pt" height="3133pt"
 viewBox="0.00 0.00 1396.00 3133.00" xmlns="http://www.w3.org/2000/svg" xmlns:xlink="http://www.w3.org/1999/xlink">
<g id="graph0" class="graph" transform="scale(4.16667 4.16667) rotate(0) translate(14.4 737.61)">
<polygon fill="black" stroke="none" points="-14.4,14.4 -14.4,-737.61 320.65,-737.61 320.65,14.4 -14.4,14.4"/>
<!-- S3Bucket -->
<g id="node1" class="node">
<title>S3Bucket</title>
<polygon fill="#001100" stroke="#00ff00" points="194.35,-723.21 191.35,-727.21 170.35,-727.21 167.35,-723.21 112.75,-723.21 112.75,-687.21 194.35,-687.21 194.35,-723.21"/>
<text xml:space="preserve" text-anchor="middle" x="153.55" y="-700.94" font-family="Courier,monospace" font-size="12.00" fill="#00ff00">S3Bucket</text>
</g>
<!-- KafkaQueue -->
<g id="node2" class="node">
<title>KafkaQueue</title>
<polygon fill="#001100" stroke="#00ff00" points="253.7,-629.21 94.38,-629.21 53.4,-571.91 212.72,-571.91 253.7,-629.21"/>
<text xml:space="preserve" text-anchor="middle" x="153.55" y="-596.29" font-family="Courier,monospace" font-size="12.00" fill="#00ff00">KafkaQueue</text>
</g>
<!-- S3Bucket&#45;&gt;KafkaQueue -->
<g id="edge1" class="edge">
<title>S3Bucket&#45;&gt;KafkaQueue</title>
<path fill="none" stroke="#00ff00" stroke-width="0.8" d="M153.55,-686.98C153.55,-686.98 153.55,-640.84 153.55,-640.84"/>
<polygon fill="#00ff00" stroke="#00ff00" stroke-width="0.8" points="157.05,-640.84 153.55,-630.84 150.05,-640.84 157.05,-640.84"/>
</g>
<!-- ETLService -->
<g id="node3" class="node">
<title>ETLService</title>
<polygon fill="#001100" stroke="#00ff00" points="201.85,-513.91 105.25,-513.91 105.25,-509.91 101.25,-509.91 101.25,-505.91 105.25,-505.91 105.25,-485.91 101.25,-485.91 101.25,-481.91 105.25,-481.91 105.25,-477.91 201.85,-477.91 201.85,-513.91"/>
<polyline fill="none" stroke="#00ff00" points="105.25,-509.91 109.25,-509.91 109.25,-505.91 105.25,-505.91"/>
<polyline fill="none" stroke="#00ff00" points="105.25,-485.91 109.25,-485.91 109.25,-481.91 105.25,-481.91"/>
<text xml:space="preserve" text-anchor="middle" x="153.55" y="-491.64" font-family="Courier,monospace" font-size="12.00" fill="#00ff00">ETLService</text>
</g>
<!-- KafkaQueue&#45;&gt;ETLService -->
<g id="edge2" class="edge">
<title>KafkaQueue&#45;&gt;ETLService</title>
<path fill="none" stroke="#00ff00" stroke-width="0.8" d="M153.55,-571.69C153.55,-571.69 153.55,-525.37 153.55,-525.37"/>
<polygon fill="#00ff00" stroke="#00ff00" stroke-width="0.8" points="157.05,-525.37 153.55,-515.37 150.05,-525.37 157.05,-525.37"/>
</g>
<!-- DataValidation -->
<g id="node4" class="node">
<title>DataValidation</title>
<polygon fill="#001100" stroke="#00ff00" points="216.85,-419.91 90.25,-419.91 90.25,-383.91 216.85,-383.91 216.85,-419.91"/>
<text xml:space="preserve" text-anchor="middle" x="153.55" y="-397.64" font-family="Courier,monospace" font-size="12.00" fill="#00ff00">DataValidation</text>
</g>
<!-- ETLService&#45;&gt;DataValidation -->
<g id="edge3" class="edge">
<title>ETLService&#45;&gt;DataValidation</title>
<path fill="none" stroke="#00ff00" stroke-width="0.8" d="M153.55,-477.79C153.55,-477.79 153.55,-431.51 153.55,-431.51"/>
<polygon fill="#00ff00" stroke="#00ff00" stroke-width="0.8" points="157.05,-431.51 153.55,-421.51 150.05,-431.51 157.05,-431.51"/>
</g>
<!-- PostgresDB -->
<g id="node5" class="node">
<title>PostgresDB</title>
<path fill="#001100" stroke="#00ff00" d="M117.85,-322.33C117.85,-324.31 96.2,-325.91 69.55,-325.91 42.9,-325.91 21.25,-324.31 21.25,-322.33 21.25,-322.33 21.25,-290.1 21.25,-290.1 21.25,-288.12 42.9,-286.52 69.55,-286.52 96.2,-286.52 117.85,-288.12 117.85,-290.1 117.85,-290.1 117.85,-322.33 117.85,-322.33"/>
<path fill="none" stroke="#00ff00" d="M117.85,-322.33C117.85,-320.35 96.2,-318.75 69.55,-318.75 42.9,-318.75 21.25,-320.35 21.25,-322.33"/>
<text xml:space="preserve" text-anchor="middle" x="69.55" y="-301.94" font-family="Courier,monospace" font-size="12.00" fill="#00ff00">PostgresDB</text>
</g>
<!-- DataValidation&#45;&gt;PostgresDB -->
<g id="edge4" class="edge">
<title>DataValidation&#45;&gt;PostgresDB</title>
<path fill="none" stroke="#00ff00" stroke-width="0.8" d="M104.05,-383.46C104.05,-383.46 104.05,-336.81 104.05,-336.81"/>
<polygon fill="#00ff00" stroke="#00ff00" stroke-width="0.8" points="107.55,-336.8 104.05,-326.81 100.55,-336.81 107.55,-336.8"/>
</g>
<!-- RedisCache -->
<g id="node6" class="node">
<title>RedisCache</title>
<polygon fill="#001100" stroke="#00ff00" points="286.85,-324.21 194.25,-324.21 190.25,-320.21 190.25,-288.21 282.85,-288.21 286.85,-292.21 286.85,-324.21"/>
<polyline fill="none" stroke="#00ff00" points="282.85,-320.21 190.25,-320.21"/>
<polyline fill="none" stroke="#00ff00" points="282.85,-320.21 282.85,-288.21"/>
<polyline fill="none" stroke="#00ff00" points="282.85,-320.21 286.85,-324.21"/>
<text xml:space="preserve" text-anchor="middle" x="238.55" y="-301.94" font-family="Courier,monospace" font-size="12.00" fill="#00ff00">RedisCache</text>
</g>
<!-- DataValidation&#45;&gt;RedisCache -->
<g id="edge5" class="edge">
<title>DataValidation&#45;&gt;RedisCache</title>
<path fill="none" stroke="#00ff00" stroke-width="0.8" d="M203.55,-383.46C203.55,-383.46 203.55,-335.82 203.55,-335.82"/>
<polygon fill="#00ff00" stroke="#00ff00" stroke-width="0.8" points="207.05,-335.82 203.55,-325.82 200.05,-335.82 207.05,-335.82"/>
</g>
<!-- AnalyticsAPI -->
<g id="node7" class="node">
<title>AnalyticsAPI</title>
<polygon fill="#001100" stroke="#00ff00" points="209.35,-228.52 97.75,-228.52 97.75,-224.52 93.75,-224.52 93.75,-220.52 97.75,-220.52 97.75,-200.52 93.75,-200.52 93.75,-196.52 97.75,-196.52 97.75,-192.52 209.35,-192.52 209.35,-228.52"/>
<polyline fill="none" stroke="#00ff00" points="97.75,-224.52 101.75,-224.52 101.75,-220.52 97.75,-220.52"/>
<polyline fill="none" stroke="#00ff00" points="97.75,-200.52 101.75,-200.52 101.75,-196.52 97.75,-196.52"/>
<text xml:space="preserve" text-anchor="middle" x="153.55" y="-206.24" font-family="Courier,monospace" font-size="12.00" fill="#00ff00">AnalyticsAPI</text>
</g>
<!-- PostgresDB&#45;&gt;AnalyticsAPI -->
<g id="edge6" class="edge">
<title>PostgresDB&#45;&gt;AnalyticsAPI</title>
<path fill="none" stroke="#00ff00" stroke-width="0.8" d="M107.8,-287.31C107.8,-287.31 107.8,-239.95 107.8,-239.95"/>
<polygon fill="#00ff00" stroke="#00ff00" stroke-width="0.8" points="111.3,-239.95 107.8,-229.95 104.3,-239.95 111.3,-239.95"/>
</g>
<!-- RedisCache&#45;&gt;AnalyticsAPI -->
<g id="edge7" class="edge">
<title>RedisCache&#45;&gt;AnalyticsAPI</title>
<path fill="none" stroke="#00ff00" stroke-width="0.8" d="M199.8,-287.76C199.8,-287.76 199.8,-240.12 199.8,-240.12"/>
<polygon fill="#00ff00" stroke="#00ff00" stroke-width="0.8" points="203.3,-240.12 199.8,-230.12 196.3,-240.12 203.3,-240.12"/>
</g>
<!-- Dashboard -->
<g id="node8" class="node">
<title>Dashboard</title>
<polygon fill="#001100" stroke="#00ff00" points="118.1,-134.52 29,-134.52 29,-98.52 118.1,-98.52 118.1,-134.52"/>
<text xml:space="preserve" text-anchor="middle" x="73.55" y="-112.24" font-family="Courier,monospace" font-size="12.00" fill="#00ff00">Dashboard</text>
</g>
<!-- AnalyticsAPI&#45;&gt;Dashboard -->
<g id="edge8" class="edge">
<title>AnalyticsAPI&#45;&gt;Dashboard</title>
<path fill="none" stroke="#00ff00" stroke-width="0.8" d="M107.93,-192.39C107.93,-192.39 107.93,-146.12 107.93,-146.12"/>
<polygon fill="#00ff00" stroke="#00ff00" stroke-width="0.8" points="111.43,-146.12 107.93,-136.12 104.43,-146.12 111.43,-146.12"/>
</g>
<!-- MLService -->
<g id="node10" class="node">
<title>MLService</title>
<polygon fill="#001100" stroke="#00ff00" points="286.1,-134.52 197,-134.52 197,-130.52 193,-130.52 193,-126.52 197,-126.52 197,-106.52 193,-106.52 193,-102.52 197,-102.52 197,-98.52 286.1,-98.52 286.1,-134.52"/>
<polyline fill="none" stroke="#00ff00" points="197,-130.52 201,-130.52 201,-126.52 197,-126.52"/>
<polyline fill="none" stroke="#00ff00" points="197,-106.52 201,-106.52 201,-102.52 197,-102.52"/>
<text xml:space="preserve" text-anchor="middle" x="241.55" y="-112.24" font-family="Courier,monospace" font-size="12.00" fill="#00ff00">MLService</text>
</g>
<!-- AnalyticsAPI&#45;&gt;MLService -->
<g id="edge10" class="edge">
<title>AnalyticsAPI&#45;&gt;MLService</title>
<path fill="none" stroke="#00ff00" stroke-width="0.8" d="M203.18,-192.39C203.18,-192.39 203.18,-146.12 203.18,-146.12"/>
<polygon fill="#00ff00" stroke="#00ff00" stroke-width="0.8" points="206.68,-146.12 203.18,-136.12 199.68,-146.12 206.68,-146.12"/>
</g>
<!-- DataScientist -->
<g id="node9" class="node">
<title>DataScientist</title>
<polygon fill="#001100" stroke="#00ff00" points="119.1,-38.26 0,-38.26 0,-2.26 119.1,-2.26 119.1,-38.26"/>
<text xml:space="preserve" text-anchor="middle" x="59.55" y="-15.98" font-family="Courier,monospace" font-size="12.00" fill="#00ff00">DataScientist</text>
</g>
<!-- Dashboard&#45;&gt;DataScientist -->
<g id="edge9" class="edge">
<title>Dashboard&#45;&gt;DataScientist</title>
<path fill="none" stroke="#00ff00" stroke-width="0.8" d="M73.55,-98.41C73.55,-98.41 73.55,-49.82 73.55,-49.82"/>
<polygon fill="#00ff00" stroke="#00ff00" stroke-width="0.8" points="77.05,-49.82 73.55,-39.82 70.05,-49.82 77.05,-49.82"/>
</g>
<!-- Customer -->
<g id="node11" class="node">
<title>Customer</title>
<ellipse fill="#001100" stroke="#00ff00" cx="248.55" cy="-20.26" rx="57.7" ry="20.26"/>
<text xml:space="preserve" text-anchor="middle" x="248.55" y="-15.98" font-family="Courier,monospace" font-size="12.00" fill="#00ff00">Customer</text>
</g>
<!-- MLService&#45;&gt;Customer -->
<g id="edge11" class="edge">
<title>MLService&#45;&gt;Customer</title>
<path fill="none" stroke="#00ff00" stroke-width="0.8" d="M241.55,-98.41C241.55,-98.41 241.55,-51.83 241.55,-51.83"/>
<polygon fill="#00ff00" stroke="#00ff00" stroke-width="0.8" points="245.05,-51.83 241.55,-41.83 238.05,-51.83 245.05,-51.83"/>
</g>
</g>
</svg>
