<?xml version="1.0" encoding="UTF-8" standalone="no"?>
<!DOCTYPE svg PUBLIC "-//W3C//DTD SVG 1.1//EN"
 "http://www.w3.org/Graphics/SVG/1.1/DTD/svg11.dtd">
<!-- Generated by graphviz version 13.0.0 (20250608.1624)
 -->
<!-- Pages: 1 -->
<svg width="2502pt" height="3237pt"
 viewBox="0.00 0.00 2502.00 3237.00" xmlns="http://www.w3.org/2000/svg" xmlns:xlink="http://www.w3.org/1999/xlink">
<g id="graph0" class="graph" transform="scale(4.16667 4.16667) rotate(0) translate(36 740.84)">
<polygon fill="white" stroke="none" points="-36,36 -36,-740.84 564.54,-740.84 564.54,36 -36,36"/>
<!-- User -->
<g id="node1" class="node">
<title>User</title>
<ellipse fill="#e8f0fe" stroke="#4285f4" cx="253.2" cy="-663.16" rx="40.52" ry="41.68"/>
<text xml:space="preserve" text-anchor="middle" x="253.2" y="-657.73" font-family="Arial" font-size="14.00" fill="#333333">User</text>
</g>
<!-- Frontend -->
<g id="node2" class="node">
<title>Frontend</title>
<ellipse fill="#e8f0fe" stroke="#4285f4" cx="253.2" cy="-507.79" rx="58.55" ry="41.68"/>
<text xml:space="preserve" text-anchor="middle" x="253.2" y="-502.36" font-family="Arial" font-size="14.00" fill="#333333">Frontend</text>
</g>
<!-- User&#45;&gt;Frontend -->
<g id="edge1" class="edge">
<title>User&#45;&gt;Frontend</title>
<path fill="none" stroke="#4285f4" stroke-width="1.2" d="M252.16,-621.38C252.01,-607.28 252.12,-590.93 252.5,-560.96"/>
<polygon fill="#4285f4" stroke="#4285f4" stroke-width="1.2" points="252.62,-551.23 256.99,-561.29 252.67,-554.77 252.59,-561.24 252.49,-561.23 252.39,-561.23 252.47,-554.77 247.99,-561.18 252.62,-551.23"/>
<text xml:space="preserve" text-anchor="middle" x="231.59" y="-588.99" font-family="Arial" font-size="11.00" fill="#666666">requests</text>
</g>
<!-- API -->
<g id="node3" class="node">
<title>API</title>
<ellipse fill="#e8f0fe" stroke="#4285f4" cx="253.2" cy="-352.42" rx="35.74" ry="41.68"/>
<text xml:space="preserve" text-anchor="middle" x="253.2" y="-346.99" font-family="Arial" font-size="14.00" fill="#333333">API</text>
</g>
<!-- Frontend&#45;&gt;API -->
<g id="edge2" class="edge">
<title>Frontend&#45;&gt;API</title>
<path fill="none" stroke="#4285f4" stroke-width="1.2" d="M250.09,-465.81C249.66,-451.69 250,-435.36 251.11,-405.46"/>
<polygon fill="#4285f4" stroke="#4285f4" stroke-width="1.2" points="251.47,-395.76 255.59,-405.92 251.44,-399.3 251.19,-405.76 251.09,-405.75 250.99,-405.75 251.24,-399.29 246.6,-405.58 251.47,-395.76"/>
<text xml:space="preserve" text-anchor="middle" x="229.28" y="-433.44" font-family="Arial" font-size="11.00" fill="#666666">validates</text>
</g>
<!-- Database -->
<g id="node4" class="node">
<title>Database</title>
<ellipse fill="#e8f0fe" stroke="#4285f4" cx="61.2" cy="-197.05" rx="61.2" ry="41.68"/>
<text xml:space="preserve" text-anchor="middle" x="61.2" y="-191.63" font-family="Arial" font-size="14.00" fill="#333333">Database</text>
</g>
<!-- API&#45;&gt;Database -->
<g id="edge3" class="edge">
<title>API&#45;&gt;Database</title>
<path fill="none" stroke="#4285f4" stroke-width="1.2" d="M223.39,-329.03C157.71,-277.48 130.98,-256.37 108.04,-237.25"/>
<polygon fill="#4285f4" stroke="#4285f4" stroke-width="1.2" points="100.48,-230.9 111.04,-233.89 103.26,-233.1 108.21,-237.26 108.14,-237.33 108.08,-237.41 103.13,-233.25 105.25,-240.78 100.48,-230.9"/>
<text xml:space="preserve" text-anchor="middle" x="132.05" y="-274.02" font-family="Arial" font-size="11.00" fill="#666666">queries</text>
</g>
<!-- Redis -->
<g id="node5" class="node">
<title>Redis</title>
<ellipse fill="#e8f0fe" stroke="#4285f4" cx="253.2" cy="-197.05" rx="44.76" ry="41.68"/>
<text xml:space="preserve" text-anchor="middle" x="253.2" y="-191.63" font-family="Arial" font-size="14.00" fill="#333333">Redis</text>
</g>
<!-- API&#45;&gt;Redis -->
<g id="edge4" class="edge">
<title>API&#45;&gt;Redis</title>
<path fill="none" stroke="#4285f4" stroke-width="1.2" d="M251.52,-310.32C250.41,-281.61 249.88,-264.03 249.91,-250.24"/>
<polygon fill="#4285f4" stroke="#4285f4" stroke-width="1.2" points="250.07,-240.37 254.41,-250.44 250.12,-243.91 250.01,-250.37 249.91,-250.37 249.81,-250.37 249.92,-243.91 245.41,-250.3 250.07,-240.37"/>
<text xml:space="preserve" text-anchor="middle" x="233.4" y="-277.28" font-family="Arial" font-size="11.00" fill="#666666">caches</text>
</g>
<!-- CloudWatch -->
<g id="node6" class="node">
<title>CloudWatch</title>
<ellipse fill="#e8f0fe" stroke="#4285f4" cx="456.2" cy="-197.05" rx="72.34" ry="41.68"/>
<text xml:space="preserve" text-anchor="middle" x="456.2" y="-191.63" font-family="Arial" font-size="14.00" fill="#333333">CloudWatch</text>
</g>
<!-- API&#45;&gt;CloudWatch -->
<g id="edge5" class="edge">
<title>API&#45;&gt;CloudWatch</title>
<path fill="none" stroke="#4285f4" stroke-width="1.2" d="M282.9,-328.92C349,-276.64 377.28,-254.39 401.6,-236.29"/>
<polygon fill="#4285f4" stroke="#4285f4" stroke-width="1.2" points="409.62,-230.37 404.25,-239.93 406.84,-232.55 401.64,-236.39 401.58,-236.31 401.52,-236.23 406.72,-232.39 398.91,-232.69 409.62,-230.37"/>
<text xml:space="preserve" text-anchor="middle" x="348.18" y="-272.83" font-family="Arial" font-size="11.00" fill="#666666">logs</text>
</g>
<!-- Backup -->
<g id="node7" class="node">
<title>Backup</title>
<ellipse fill="#e8f0fe" stroke="#4285f4" cx="61.2" cy="-41.68" rx="52.18" ry="41.68"/>
<text xml:space="preserve" text-anchor="middle" x="61.2" y="-36.26" font-family="Arial" font-size="14.00" fill="#333333">Backup</text>
</g>
<!-- Database&#45;&gt;Backup -->
<g id="edge6" class="edge">
<title>Database&#45;&gt;Backup</title>
<path fill="none" stroke="#4285f4" stroke-width="1.2" d="M52.96,-155.61C47.23,-125.58 44.98,-108.55 46.22,-93.58"/>
<polygon fill="#4285f4" stroke="#4285f4" stroke-width="1.2" points="47.63,-83.8 50.66,-94.34 47.22,-87.32 46.3,-93.71 46.2,-93.7 46.1,-93.68 47.03,-87.29 41.75,-93.05 47.63,-83.8"/>
<text xml:space="preserve" text-anchor="middle" x="24.08" y="-121.77" font-family="Arial" font-size="11.00" fill="#666666">replicates</text>
</g>
</g>
</svg>
