<?xml version="1.0" encoding="UTF-8" standalone="no"?>
<!DOCTYPE svg PUBLIC "-//W3C//DTD SVG 1.1//EN"
 "http://www.w3.org/Graphics/SVG/1.1/DTD/svg11.dtd">
<!-- Generated by graphviz version 13.1.2 (20250808.2320)
 -->
<!-- Pages: 1 -->
<svg width="3356pt" height="4065pt"
 viewBox="0.00 0.00 3356.00 4065.00" xmlns="http://www.w3.org/2000/svg" xmlns:xlink="http://www.w3.org/1999/xlink">
<g id="graph0" class="graph" transform="scale(4.16667 4.16667) rotate(0) translate(43.2 932.4)">
<polygon fill="white" stroke="none" points="-43.2,43.2 -43.2,-932.4 762.18,-932.4 762.18,43.2 -43.2,43.2"/>
<!-- User -->
<g id="node1" class="node">
<title>User</title>
<path fill="white" stroke="black" d="M371.23,-889.2C371.23,-889.2 309.12,-889.2 309.12,-889.2 303.12,-889.2 297.12,-883.2 297.12,-877.2 297.12,-877.2 297.12,-843 297.12,-843 297.12,-837 303.12,-831 309.12,-831 309.12,-831 371.23,-831 371.23,-831 377.23,-831 383.23,-837 383.23,-843 383.23,-843 383.23,-877.2 383.23,-877.2 383.23,-883.2 377.23,-889.2 371.23,-889.2"/>
<text xml:space="preserve" text-anchor="middle" x="340.18" y="-854.3" font-family="Helvetica,sans-Serif" font-size="14.00">User</text>
</g>
<!-- MobileApp -->
<g id="node2" class="node">
<title>MobileApp</title>
<path fill="white" stroke="black" d="M259.23,-723C259.23,-723 161.12,-723 161.12,-723 155.12,-723 149.12,-717 149.12,-711 149.12,-711 149.12,-676.8 149.12,-676.8 149.12,-670.8 155.12,-664.8 161.12,-664.8 161.12,-664.8 259.23,-664.8 259.23,-664.8 265.23,-664.8 271.23,-670.8 271.23,-676.8 271.23,-676.8 271.23,-711 271.23,-711 271.23,-717 265.23,-723 259.23,-723"/>
<text xml:space="preserve" text-anchor="middle" x="210.18" y="-688.1" font-family="Helvetica,sans-Serif" font-size="14.00">MobileApp</text>
</g>
<!-- User&#45;&gt;MobileApp -->
<g id="edge1" class="edge">
<title>User&#45;&gt;MobileApp</title>
<path fill="none" stroke="black" stroke-width="1.5" d="M325.82,-830.51C325.82,-781.31 325.82,-688 325.83,-688 325.83,-688 284,-688 284,-688"/>
<polygon fill="black" stroke="black" stroke-width="1.5" points="284,-684.5 274,-688 283.99,-691.5 284,-684.5"/>
</g>
<!-- WebApp -->
<g id="node3" class="node">
<title>WebApp</title>
<path fill="white" stroke="black" d="M512.85,-723C512.85,-723 427.5,-723 427.5,-723 421.5,-723 415.5,-717 415.5,-711 415.5,-711 415.5,-676.8 415.5,-676.8 415.5,-670.8 421.5,-664.8 427.5,-664.8 427.5,-664.8 512.85,-664.8 512.85,-664.8 518.85,-664.8 524.85,-670.8 524.85,-676.8 524.85,-676.8 524.85,-711 524.85,-711 524.85,-717 518.85,-723 512.85,-723"/>
<text xml:space="preserve" text-anchor="middle" x="470.18" y="-688.1" font-family="Helvetica,sans-Serif" font-size="14.00">WebApp</text>
</g>
<!-- User&#45;&gt;WebApp -->
<g id="edge2" class="edge">
<title>User&#45;&gt;WebApp</title>
<path fill="none" stroke="black" stroke-width="1.5" d="M354.53,-830.64C354.53,-787.19 354.53,-711 354.52,-711 354.52,-711 402.79,-711 402.79,-711"/>
<polygon fill="black" stroke="black" stroke-width="1.5" points="402.79,-714.5 412.79,-711 402.79,-707.5 402.79,-714.5"/>
</g>
<!-- APIGateway -->
<g id="node4" class="node">
<title>APIGateway</title>
<path fill="white" stroke="black" d="M394.85,-556.8C394.85,-556.8 285.5,-556.8 285.5,-556.8 279.5,-556.8 273.5,-550.8 273.5,-544.8 273.5,-544.8 273.5,-510.6 273.5,-510.6 273.5,-504.6 279.5,-498.6 285.5,-498.6 285.5,-498.6 394.85,-498.6 394.85,-498.6 400.85,-498.6 406.85,-504.6 406.85,-510.6 406.85,-510.6 406.85,-544.8 406.85,-544.8 406.85,-550.8 400.85,-556.8 394.85,-556.8"/>
<text xml:space="preserve" text-anchor="middle" x="340.18" y="-521.9" font-family="Helvetica,sans-Serif" font-size="14.00">APIGateway</text>
</g>
<!-- MobileApp&#45;&gt;APIGateway -->
<g id="edge3" class="edge">
<title>MobileApp&#45;&gt;APIGateway</title>
<path fill="none" stroke="black" stroke-width="1.5" d="M271.53,-676C279.69,-676 285.31,-676 285.31,-676 285.31,-676 285.31,-569.27 285.31,-569.27"/>
<polygon fill="black" stroke="black" stroke-width="1.5" points="288.81,-569.27 285.31,-559.27 281.81,-569.27 288.81,-569.27"/>
</g>
<!-- WebApp&#45;&gt;APIGateway -->
<g id="edge4" class="edge">
<title>WebApp&#45;&gt;APIGateway</title>
<path fill="none" stroke="black" stroke-width="1.5" d="M415.17,-700C403.72,-700 395.04,-700 395.04,-700 395.04,-700 395.04,-569.2 395.04,-569.2"/>
<polygon fill="black" stroke="black" stroke-width="1.5" points="398.54,-569.2 395.04,-559.2 391.54,-569.2 398.54,-569.2"/>
</g>
<!-- AuthService -->
<g id="node5" class="node">
<title>AuthService</title>
<path fill="white" stroke="black" d="M118.35,-390.6C118.35,-390.6 12,-390.6 12,-390.6 6,-390.6 0,-384.6 0,-378.6 0,-378.6 0,-344.4 0,-344.4 0,-338.4 6,-332.4 12,-332.4 12,-332.4 118.35,-332.4 118.35,-332.4 124.35,-332.4 130.35,-338.4 130.35,-344.4 130.35,-344.4 130.35,-378.6 130.35,-378.6 130.35,-384.6 124.35,-390.6 118.35,-390.6"/>
<text xml:space="preserve" text-anchor="middle" x="65.18" y="-355.7" font-family="Helvetica,sans-Serif" font-size="14.00">AuthService</text>
</g>
<!-- APIGateway&#45;&gt;AuthService -->
<g id="edge5" class="edge">
<title>APIGateway&#45;&gt;AuthService</title>
<path fill="none" stroke="black" stroke-width="1.5" d="M273.25,-528C191.85,-528 65.18,-528 65.18,-528 65.18,-528 65.18,-403.15 65.18,-403.15"/>
<polygon fill="black" stroke="black" stroke-width="1.5" points="68.68,-403.15 65.18,-393.15 61.68,-403.15 68.68,-403.15"/>
</g>
<!-- UserService -->
<g id="node6" class="node">
<title>UserService</title>
<path fill="white" stroke="black" d="M393.73,-390.6C393.73,-390.6 286.62,-390.6 286.62,-390.6 280.62,-390.6 274.62,-384.6 274.62,-378.6 274.62,-378.6 274.62,-344.4 274.62,-344.4 274.62,-338.4 280.62,-332.4 286.62,-332.4 286.62,-332.4 393.73,-332.4 393.73,-332.4 399.73,-332.4 405.73,-338.4 405.73,-344.4 405.73,-344.4 405.73,-378.6 405.73,-378.6 405.73,-384.6 399.73,-390.6 393.73,-390.6"/>
<text xml:space="preserve" text-anchor="middle" x="340.18" y="-355.7" font-family="Helvetica,sans-Serif" font-size="14.00">UserService</text>
</g>
<!-- APIGateway&#45;&gt;UserService -->
<g id="edge6" class="edge">
<title>APIGateway&#45;&gt;UserService</title>
<path fill="none" stroke="black" stroke-width="1.5" d="M340.18,-498.37C340.18,-498.37 340.18,-403.37 340.18,-403.37"/>
<polygon fill="black" stroke="black" stroke-width="1.5" points="343.68,-403.37 340.18,-393.37 336.68,-403.37 343.68,-403.37"/>
</g>
<!-- PaymentService -->
<g id="node7" class="node">
<title>PaymentService</title>
<path fill="white" stroke="black" d="M699.47,-390.6C699.47,-390.6 566.88,-390.6 566.88,-390.6 560.88,-390.6 554.88,-384.6 554.88,-378.6 554.88,-378.6 554.88,-344.4 554.88,-344.4 554.88,-338.4 560.88,-332.4 566.88,-332.4 566.88,-332.4 699.47,-332.4 699.47,-332.4 705.47,-332.4 711.47,-338.4 711.47,-344.4 711.47,-344.4 711.47,-378.6 711.47,-378.6 711.47,-384.6 705.47,-390.6 699.47,-390.6"/>
<text xml:space="preserve" text-anchor="middle" x="633.17" y="-355.7" font-family="Helvetica,sans-Serif" font-size="14.00">PaymentService</text>
</g>
<!-- APIGateway&#45;&gt;PaymentService -->
<g id="edge7" class="edge">
<title>APIGateway&#45;&gt;PaymentService</title>
<path fill="none" stroke="black" stroke-width="1.5" d="M407.03,-528C493.5,-528 633.17,-528 633.17,-528 633.17,-528 633.17,-403.15 633.17,-403.15"/>
<polygon fill="black" stroke="black" stroke-width="1.5" points="636.68,-403.15 633.18,-393.15 629.68,-403.15 636.68,-403.15"/>
</g>
<!-- UserDatabase -->
<g id="node8" class="node">
<title>UserDatabase</title>
<path fill="white" stroke="black" d="M397.1,-224.4C397.1,-224.4 277.25,-224.4 277.25,-224.4 271.25,-224.4 265.25,-218.4 265.25,-212.4 265.25,-212.4 265.25,-178.2 265.25,-178.2 265.25,-172.2 271.25,-166.2 277.25,-166.2 277.25,-166.2 397.1,-166.2 397.1,-166.2 403.1,-166.2 409.1,-172.2 409.1,-178.2 409.1,-178.2 409.1,-212.4 409.1,-212.4 409.1,-218.4 403.1,-224.4 397.1,-224.4"/>
<text xml:space="preserve" text-anchor="middle" x="337.18" y="-189.5" font-family="Helvetica,sans-Serif" font-size="14.00">UserDatabase</text>
</g>
<!-- UserService&#45;&gt;UserDatabase -->
<g id="edge8" class="edge">
<title>UserService&#45;&gt;UserDatabase</title>
<path fill="none" stroke="black" stroke-width="1.5" d="M340.18,-332.17C340.18,-332.17 340.18,-237.17 340.18,-237.17"/>
<polygon fill="black" stroke="black" stroke-width="1.5" points="343.68,-237.17 340.18,-227.17 336.68,-237.17 343.68,-237.17"/>
</g>
<!-- PaymentGateway -->
<g id="node9" class="node">
<title>PaymentGateway</title>
<path fill="white" stroke="black" d="M706.97,-224.4C706.97,-224.4 565.38,-224.4 565.38,-224.4 559.38,-224.4 553.38,-218.4 553.38,-212.4 553.38,-212.4 553.38,-178.2 553.38,-178.2 553.38,-172.2 559.38,-166.2 565.38,-166.2 565.38,-166.2 706.97,-166.2 706.97,-166.2 712.97,-166.2 718.97,-172.2 718.97,-178.2 718.97,-178.2 718.97,-212.4 718.97,-212.4 718.97,-218.4 712.97,-224.4 706.97,-224.4"/>
<text xml:space="preserve" text-anchor="middle" x="636.17" y="-189.5" font-family="Helvetica,sans-Serif" font-size="14.00">PaymentGateway</text>
</g>
<!-- PaymentService&#45;&gt;PaymentGateway -->
<g id="edge9" class="edge">
<title>PaymentService&#45;&gt;PaymentGateway</title>
<path fill="none" stroke="black" stroke-width="1.5" d="M633.17,-332.17C633.17,-332.17 633.17,-237.17 633.17,-237.17"/>
<polygon fill="black" stroke="black" stroke-width="1.5" points="636.68,-237.17 633.18,-227.17 629.68,-237.17 636.68,-237.17"/>
</g>
<!-- BankAPI -->
<g id="node10" class="node">
<title>BankAPI</title>
<path fill="white" stroke="black" d="M679.22,-58.2C679.22,-58.2 593.12,-58.2 593.12,-58.2 587.12,-58.2 581.12,-52.2 581.12,-46.2 581.12,-46.2 581.12,-12 581.12,-12 581.12,-6 587.12,0 593.12,0 593.12,0 679.22,0 679.22,0 685.22,0 691.22,-6 691.22,-12 691.22,-12 691.22,-46.2 691.22,-46.2 691.22,-52.2 685.22,-58.2 679.22,-58.2"/>
<text xml:space="preserve" text-anchor="middle" x="636.17" y="-23.3" font-family="Helvetica,sans-Serif" font-size="14.00">BankAPI</text>
</g>
<!-- PaymentGateway&#45;&gt;BankAPI -->
<g id="edge10" class="edge">
<title>PaymentGateway&#45;&gt;BankAPI</title>
<path fill="none" stroke="black" stroke-width="1.5" d="M636.17,-165.97C636.17,-165.97 636.17,-70.97 636.17,-70.97"/>
<polygon fill="black" stroke="black" stroke-width="1.5" points="639.68,-70.97 636.18,-60.97 632.68,-70.97 639.68,-70.97"/>
</g>
</g>
</svg>
