<?xml version="1.0" encoding="UTF-8" standalone="no"?>
<!DOCTYPE svg PUBLIC "-//W3C//DTD SVG 1.1//EN"
 "http://www.w3.org/Graphics/SVG/1.1/DTD/svg11.dtd">
<!-- Generated by graphviz version 13.1.2 (20250808.2320)
 -->
<!-- Pages: 1 -->
<svg width="1212pt" height="2228pt"
 viewBox="0.00 0.00 1212.00 2228.00" xmlns="http://www.w3.org/2000/svg" xmlns:xlink="http://www.w3.org/1999/xlink">
<g id="graph0" class="graph" transform="scale(4.16667 4.16667) rotate(0) translate(14.4 520.4)">
<!-- Sun -->
<g id="node1" class="node">
<title>Sun</title>
<polygon fill="black" stroke="white" points="195.5,-506 141.5,-506 141.5,-470 195.5,-470 195.5,-506"/>
<text xml:space="preserve" text-anchor="middle" x="168.5" y="-483.73" font-family="Courier,monospace" font-size="12.00" fill="white">Sun</text>
</g>
<!-- Evaporation -->
<g id="node2" class="node">
<title>Evaporation</title>
<polygon fill="black" stroke="white" points="220.55,-412 116.45,-412 116.45,-376 220.55,-376 220.55,-412"/>
<text xml:space="preserve" text-anchor="middle" x="168.5" y="-389.73" font-family="Courier,monospace" font-size="12.00" fill="white">Evaporation</text>
</g>
<!-- Sun&#45;&gt;Evaporation -->
<g id="edge1" class="edge">
<title>Sun&#45;&gt;Evaporation</title>
<path fill="none" stroke="white" stroke-width="0.8" d="M168.5,-469.88C168.5,-469.88 168.5,-423.6 168.5,-423.6"/>
<polygon fill="white" stroke="white" stroke-width="0.8" points="172,-423.6 168.5,-413.6 165,-423.6 172,-423.6"/>
</g>
<!-- Clouds -->
<g id="node3" class="node">
<title>Clouds</title>
<polygon fill="black" stroke="white" points="130.8,-318 64.2,-318 64.2,-282 130.8,-282 130.8,-318"/>
<text xml:space="preserve" text-anchor="middle" x="97.5" y="-295.73" font-family="Courier,monospace" font-size="12.00" fill="white">Clouds</text>
</g>
<!-- Evaporation&#45;&gt;Clouds -->
<g id="edge2" class="edge">
<title>Evaporation&#45;&gt;Clouds</title>
<path fill="none" stroke="white" stroke-width="0.8" d="M123.62,-375.88C123.62,-375.88 123.62,-329.6 123.62,-329.6"/>
<polygon fill="white" stroke="white" stroke-width="0.8" points="127.13,-329.6 123.63,-319.6 120.13,-329.6 127.13,-329.6"/>
<text xml:space="preserve" text-anchor="middle" x="78.62" y="-355.59" font-family="Courier,monospace" font-size="12.00" fill="white">condensation</text>
</g>
<!-- Rain -->
<g id="node4" class="node">
<title>Rain</title>
<polygon fill="black" stroke="white" points="124.5,-224 70.5,-224 70.5,-188 124.5,-188 124.5,-224"/>
<text xml:space="preserve" text-anchor="middle" x="97.5" y="-201.72" font-family="Courier,monospace" font-size="12.00" fill="white">Rain</text>
</g>
<!-- Clouds&#45;&gt;Rain -->
<g id="edge3" class="edge">
<title>Clouds&#45;&gt;Rain</title>
<path fill="none" stroke="white" stroke-width="0.8" d="M97.5,-281.88C97.5,-281.88 97.5,-235.6 97.5,-235.6"/>
<polygon fill="white" stroke="white" stroke-width="0.8" points="101,-235.6 97.5,-225.6 94,-235.6 101,-235.6"/>
<text xml:space="preserve" text-anchor="middle" x="48.75" y="-261.59" font-family="Courier,monospace" font-size="12.00" fill="white">precipitation</text>
</g>
<!-- Rivers -->
<g id="node5" class="node">
<title>Rivers</title>
<polygon fill="black" stroke="white" points="130.8,-130 64.2,-130 64.2,-94 130.8,-94 130.8,-130"/>
<text xml:space="preserve" text-anchor="middle" x="97.5" y="-107.72" font-family="Courier,monospace" font-size="12.00" fill="white">Rivers</text>
</g>
<!-- Rain&#45;&gt;Rivers -->
<g id="edge4" class="edge">
<title>Rain&#45;&gt;Rivers</title>
<path fill="none" stroke="white" stroke-width="0.8" d="M97.5,-187.88C97.5,-187.88 97.5,-141.6 97.5,-141.6"/>
<polygon fill="white" stroke="white" stroke-width="0.8" points="101,-141.6 97.5,-131.6 94,-141.6 101,-141.6"/>
</g>
<!-- Oceans -->
<g id="node6" class="node">
<title>Oceans</title>
<polygon fill="black" stroke="white" points="201.8,-36 135.2,-36 135.2,0 201.8,0 201.8,-36"/>
<text xml:space="preserve" text-anchor="middle" x="168.5" y="-13.72" font-family="Courier,monospace" font-size="12.00" fill="white">Oceans</text>
</g>
<!-- Rivers&#45;&gt;Oceans -->
<g id="edge5" class="edge">
<title>Rivers&#45;&gt;Oceans</title>
<path fill="none" stroke="white" stroke-width="0.8" d="M130.95,-112C144.67,-112 157.4,-112 157.4,-112 157.4,-112 157.4,-47.33 157.4,-47.33"/>
<polygon fill="white" stroke="white" stroke-width="0.8" points="160.9,-47.33 157.4,-37.33 153.9,-47.34 160.9,-47.33"/>
</g>
<!-- Oceans&#45;&gt;Evaporation -->
<g id="edge6" class="edge">
<title>Oceans&#45;&gt;Evaporation</title>
<path fill="none" stroke="white" stroke-width="0.8" d="M179.6,-36.39C179.6,-36.39 179.6,-364.43 179.6,-364.43"/>
<polygon fill="white" stroke="white" stroke-width="0.8" points="176.1,-364.43 179.6,-374.43 183.1,-364.43 176.1,-364.43"/>
<text xml:space="preserve" text-anchor="middle" x="220.85" y="-203.26" font-family="Courier,monospace" font-size="12.00" fill="white">evaporation</text>
</g>
</g>
</svg>
