<?xml version="1.0" encoding="UTF-8" standalone="no"?>
<!DOCTYPE svg PUBLIC "-//W3C//DTD SVG 1.1//EN"
 "http://www.w3.org/Graphics/SVG/1.1/DTD/svg11.dtd">
<!-- Generated by graphviz version 13.1.2 (20250808.2320)
 -->
<!-- Pages: 1 -->
<svg width="1421pt" height="4065pt"
 viewBox="0.00 0.00 1421.00 4065.00" xmlns="http://www.w3.org/2000/svg" xmlns:xlink="http://www.w3.org/1999/xlink">
<g id="graph0" class="graph" transform="scale(4.16667 4.16667) rotate(0) translate(43.2 932.4)">
<!-- Sun -->
<g id="node1" class="node">
<title>Sun</title>
<path fill="black" stroke="white" d="M218.55,-889.2C218.55,-889.2 160.95,-889.2 160.95,-889.2 154.95,-889.2 148.95,-883.2 148.95,-877.2 148.95,-877.2 148.95,-843 148.95,-843 148.95,-837 154.95,-831 160.95,-831 160.95,-831 218.55,-831 218.55,-831 224.55,-831 230.55,-837 230.55,-843 230.55,-843 230.55,-877.2 230.55,-877.2 230.55,-883.2 224.55,-889.2 218.55,-889.2"/>
<text xml:space="preserve" text-anchor="middle" x="189.75" y="-854.3" font-family="Helvetica,sans-Serif" font-size="14.00" fill="white">Sun</text>
</g>
<!-- Evaporation -->
<g id="node2" class="node">
<title>Evaporation</title>
<path fill="black" stroke="white" d="M242.55,-723C242.55,-723 136.95,-723 136.95,-723 130.95,-723 124.95,-717 124.95,-711 124.95,-711 124.95,-676.8 124.95,-676.8 124.95,-670.8 130.95,-664.8 136.95,-664.8 136.95,-664.8 242.55,-664.8 242.55,-664.8 248.55,-664.8 254.55,-670.8 254.55,-676.8 254.55,-676.8 254.55,-711 254.55,-711 254.55,-717 248.55,-723 242.55,-723"/>
<text xml:space="preserve" text-anchor="middle" x="189.75" y="-688.1" font-family="Helvetica,sans-Serif" font-size="14.00" fill="white">Evaporation</text>
</g>
<!-- Sun&#45;&gt;Evaporation -->
<g id="edge1" class="edge">
<title>Sun&#45;&gt;Evaporation</title>
<path fill="none" stroke="white" stroke-width="1.5" d="M189.75,-830.77C189.75,-830.77 189.75,-735.77 189.75,-735.77"/>
<polygon fill="white" stroke="white" stroke-width="1.5" points="193.25,-735.77 189.75,-725.77 186.25,-735.77 193.25,-735.77"/>
</g>
<!-- Clouds -->
<g id="node3" class="node">
<title>Clouds</title>
<path fill="black" stroke="white" d="M94.55,-556.8C94.55,-556.8 18.95,-556.8 18.95,-556.8 12.95,-556.8 6.95,-550.8 6.95,-544.8 6.95,-544.8 6.95,-510.6 6.95,-510.6 6.95,-504.6 12.95,-498.6 18.95,-498.6 18.95,-498.6 94.55,-498.6 94.55,-498.6 100.55,-498.6 106.55,-504.6 106.55,-510.6 106.55,-510.6 106.55,-544.8 106.55,-544.8 106.55,-550.8 100.55,-556.8 94.55,-556.8"/>
<text xml:space="preserve" text-anchor="middle" x="56.75" y="-521.9" font-family="Helvetica,sans-Serif" font-size="14.00" fill="white">Clouds</text>
</g>
<!-- Evaporation&#45;&gt;Clouds -->
<g id="edge2" class="edge">
<title>Evaporation&#45;&gt;Clouds</title>
<path fill="none" stroke="white" stroke-width="1.5" d="M131.64,-664.62C131.64,-617 131.64,-528 131.64,-528 131.64,-528 118.97,-528 118.97,-528"/>
<polygon fill="white" stroke="white" stroke-width="1.5" points="118.97,-524.5 108.97,-528 118.97,-531.5 118.97,-524.5"/>
<text xml:space="preserve" text-anchor="middle" x="99.76" y="-591.53" font-family="Helvetica,sans-Serif" font-size="11.00" fill="white">condensation</text>
</g>
<!-- Rain -->
<g id="node4" class="node">
<title>Rain</title>
<path fill="black" stroke="white" d="M88.42,-390.6C88.42,-390.6 27.07,-390.6 27.07,-390.6 21.08,-390.6 15.08,-384.6 15.08,-378.6 15.08,-378.6 15.08,-344.4 15.08,-344.4 15.08,-338.4 21.08,-332.4 27.08,-332.4 27.08,-332.4 88.42,-332.4 88.42,-332.4 94.42,-332.4 100.42,-338.4 100.42,-344.4 100.42,-344.4 100.42,-378.6 100.42,-378.6 100.42,-384.6 94.42,-390.6 88.42,-390.6"/>
<text xml:space="preserve" text-anchor="middle" x="57.75" y="-355.7" font-family="Helvetica,sans-Serif" font-size="14.00" fill="white">Rain</text>
</g>
<!-- Clouds&#45;&gt;Rain -->
<g id="edge3" class="edge">
<title>Clouds&#45;&gt;Rain</title>
<path fill="none" stroke="white" stroke-width="1.5" d="M57.75,-498.37C57.75,-498.37 57.75,-403.37 57.75,-403.37"/>
<polygon fill="white" stroke="white" stroke-width="1.5" points="61.25,-403.37 57.75,-393.37 54.25,-403.37 61.25,-403.37"/>
<text xml:space="preserve" text-anchor="middle" x="28.88" y="-452.42" font-family="Helvetica,sans-Serif" font-size="11.00" fill="white">precipitation</text>
</g>
<!-- Rivers -->
<g id="node5" class="node">
<title>Rivers</title>
<path fill="black" stroke="white" d="M94.67,-224.4C94.67,-224.4 22.83,-224.4 22.83,-224.4 16.83,-224.4 10.83,-218.4 10.83,-212.4 10.83,-212.4 10.83,-178.2 10.83,-178.2 10.83,-172.2 16.83,-166.2 22.83,-166.2 22.83,-166.2 94.67,-166.2 94.67,-166.2 100.67,-166.2 106.67,-172.2 106.67,-178.2 106.67,-178.2 106.67,-212.4 106.67,-212.4 106.67,-218.4 100.67,-224.4 94.67,-224.4"/>
<text xml:space="preserve" text-anchor="middle" x="58.75" y="-189.5" font-family="Helvetica,sans-Serif" font-size="14.00" fill="white">Rivers</text>
</g>
<!-- Rain&#45;&gt;Rivers -->
<g id="edge4" class="edge">
<title>Rain&#45;&gt;Rivers</title>
<path fill="none" stroke="white" stroke-width="1.5" d="M57.75,-332.17C57.75,-332.17 57.75,-237.17 57.75,-237.17"/>
<polygon fill="white" stroke="white" stroke-width="1.5" points="61.25,-237.17 57.75,-227.17 54.25,-237.17 61.25,-237.17"/>
</g>
<!-- Oceans -->
<g id="node6" class="node">
<title>Oceans</title>
<path fill="black" stroke="white" d="M231.18,-58.2C231.18,-58.2 150.32,-58.2 150.32,-58.2 144.32,-58.2 138.32,-52.2 138.32,-46.2 138.32,-46.2 138.32,-12 138.32,-12 138.32,-6 144.32,0 150.32,0 150.32,0 231.18,0 231.18,0 237.18,0 243.18,-6 243.18,-12 243.18,-12 243.18,-46.2 243.18,-46.2 243.18,-52.2 237.18,-58.2 231.18,-58.2"/>
<text xml:space="preserve" text-anchor="middle" x="190.75" y="-23.3" font-family="Helvetica,sans-Serif" font-size="14.00" fill="white">Oceans</text>
</g>
<!-- Rivers&#45;&gt;Oceans -->
<g id="edge5" class="edge">
<title>Rivers&#45;&gt;Oceans</title>
<path fill="none" stroke="white" stroke-width="1.5" d="M58.75,-165.95C58.75,-118.21 58.75,-29 58.75,-29 58.75,-29 125.93,-29 125.93,-29"/>
<polygon fill="white" stroke="white" stroke-width="1.5" points="125.93,-32.5 135.93,-29 125.93,-25.5 125.93,-32.5"/>
</g>
<!-- Oceans&#45;&gt;Evaporation -->
<g id="edge6" class="edge">
<title>Oceans&#45;&gt;Evaporation</title>
<path fill="none" stroke="white" stroke-width="1.5" d="M190.75,-58.52C190.75,-58.52 190.75,-652.17 190.75,-652.17"/>
<polygon fill="white" stroke="white" stroke-width="1.5" points="187.25,-652.17 190.75,-662.17 194.25,-652.17 187.25,-652.17"/>
<text xml:space="preserve" text-anchor="middle" x="162.62" y="-356.9" font-family="Helvetica,sans-Serif" font-size="11.00" fill="white">evaporation</text>
</g>
</g>
</svg>
